<svg id="Capa_1" data-name="Capa 1" xmlns="http://www.w3.org/2000/svg" viewBox="0 0 594.42 143.12"><defs><style>.cls-1{fill:#1d70b7;}.cls-2{fill:#74b648;}.cls-3{fill:#158c8b;}.cls-4{fill:#35afe4;}.cls-5{fill:#ed7421;}.cls-6{fill:#b7be0b;}</style></defs><path class="cls-1" d="M470.9,359.37v43.42a68.49,68.49,0,0,1-16.48,5.72,93.18,93.18,0,0,1-19.51,1.89q-23.52,0-36.37-12.17t-12.83-34.52q0-23.08,12.9-36.14t35.8-13.06q16.92,0,26.83,7.74t9.92,20.7v1.7H452.47q-.37-8.55-5.29-13t-13.9-4.47q-12.64,0-20,9.62T406,363.09q0,16.35,7.71,24.79t22.68,8.43a63.58,63.58,0,0,0,7.71-.47,59.53,59.53,0,0,0,7.46-1.42l.06-20.26H433.91V359.37Z" transform="translate(-385.71 -312.24)"/><path class="cls-1" d="M488.15,408.83V316h61.54v15.36H508.28v21.89h38.83v15.1H508.28v25h42.85v15.48Z" transform="translate(-385.71 -312.24)"/><path class="cls-1" d="M561.76,378.69h19.45q0,9.26,4.56,13.91t13.75,4.65q7.35,0,12-3.62a11.13,11.13,0,0,0,4.63-9.15q0-8.75-21.84-16.17-1.44-.51-2.07-.69c-.47-.17-1.09-.38-1.89-.63q-12.21-4-17.62-8.06a19.22,19.22,0,0,1-6-7.39,23.28,23.28,0,0,1-2.1-10q0-12.52,9.47-19.85t25.82-7.33q15.3,0,23.7,7.11t8.4,19.94v.5H614.74q-.62-7.23-4.75-11t-11.36-3.77q-7,0-11.1,3.21a10.35,10.35,0,0,0-4.12,8.62q0,8.43,22.9,15.85l1.2.38q17.49,5.79,23,11.58t5.5,16q0,13-9.91,20.29t-27.59,7.33q-18.37,0-27.56-7.61T561.76,380Z" transform="translate(-385.71 -312.24)"/><path class="cls-1" d="M650.17,408.83V316h19.75v92.81Z" transform="translate(-385.71 -312.24)"/><path class="cls-1" d="M764.24,381q-1,14.34-10.7,21.87t-27.18,7.51q-20.76,0-31.46-12.08t-10.69-35.48q0-23.35,11-35.84t31.52-12.49q16.74,0,26.52,7.52t10.48,20.8H745.43a14.05,14.05,0,0,0-5.16-10.67q-4.85-4-12.78-4-11.57,0-17.45,8.65t-5.89,25.64q0,17.49,5.79,26t17.68,8.47q7.68,0,12.56-4.35A16.28,16.28,0,0,0,745.55,381Z" transform="translate(-385.71 -312.24)"/><path class="cls-1" d="M878.07,408.83V316H909.4l19.45,67,19.31-67h32v92.81H961.76V330.37l-24.29,78.46H920.1l-24.23-78.46v78.46Z" transform="translate(-385.71 -312.24)"/><path class="cls-2" d="M859.78,339.49a32.62,32.62,0,0,1,4.45,7.23c6.26,21.23.2,38.27-7,46.58a45.83,45.83,0,0,1-12.52,10.79A51.5,51.5,0,0,1,798,406a44,44,0,0,1-14-10.08l-.41,2.15L782,391.31l3.85-.67-.64,1.78c2.54,2.43,6.62,4.53,10.21,6,8.91,4.19,19.71,6.8,30.8,5.43a45.86,45.86,0,0,0,15.4-4.71A46.84,46.84,0,0,0,853.66,390c6.76-7.08,13.12-23.36,9.72-40.81a101.68,101.68,0,0,0-3.6-9.69" transform="translate(-385.71 -312.24)"/><path class="cls-3" d="M799.12,326.31l-2.78-.82,2.12-3.87.22,1s1.66-.81,2.54-1.2a61.45,61.45,0,0,1,32.13-4.77A43.56,43.56,0,0,1,852,323.32,31.51,31.51,0,0,1,864.74,340a39.12,39.12,0,0,1,.79,20.14c-1.36,6.35-3.61,12.86-6.84,17.85-6.5,10-19.08,26.78-54.28,22.42,30.74,2.71,43.76-14.5,49.27-24s9.06-23.2,5.37-34.82a26.85,26.85,0,0,0-10.36-13.92,39.69,39.69,0,0,0-16.09-6.33A61.46,61.46,0,0,0,802.4,324c-1.19.41-3.44,1.32-3.44,1.32Z" transform="translate(-385.71 -312.24)"/><path class="cls-3" d="M839.49,376.22c-8,6.36-21.75,9.76-35.87,3.95-5.47-2.62-9-5.26-12.12-10.77a20.62,20.62,0,0,1-1.07-18.95c3.36-7.9,10.17-14.45,22.75-17.65,12-2.84,27.22.88,29.66,14.8,2.81,16-10.65,22.53-14.24,24.23.08.06.81.74.81.74l-3.45-.19.59-2.35.9.77c2-1.27,13.92-8.57,11.09-22.43-2.86-14-32.63-16.31-42.84,3.74a17.16,17.16,0,0,0,.31,15.55c2.46,4.82,5,7,9.71,9.62,8.92,4.05,22,5.44,33.77-1.06" transform="translate(-385.71 -312.24)"/><path class="cls-4" d="M783,374.56a30.57,30.57,0,0,1-2.49-4.38A26.4,26.4,0,0,1,778,356.11c.57-6.26,2.6-12.8,9.66-20.31,11.81-12.33,29.55-13.41,31.6-13.38,22,0,28.06,14.56,28.83,17.56a30.49,30.49,0,0,1,.76,4.32,3.73,3.73,0,0,1,1.31-.81L848,348.84l-2.79-2.43a16.08,16.08,0,0,1,1.63-.85,30.75,30.75,0,0,0-1.32-4.6,17.3,17.3,0,0,0-7-8c-1.89-1.2-9.9-7.33-28.85-3.35-5.59,1.55-12.36,3.51-19,10.09a33.21,33.21,0,0,0-10,16.83,26.83,26.83,0,0,0,.54,13.26,41.27,41.27,0,0,0,1.71,4.73" transform="translate(-385.71 -312.24)"/><path class="cls-5" d="M778.24,346.52c-13.41,17.21.39,38.16,24.75,44.11,26.4,5.16,35-6.32,38.82-9.84a17.69,17.69,0,0,0,2.9-3.25,7.43,7.43,0,0,0-.81-.91l2.74-.41,0,4.19s-.1-.18-.53-.89a19.86,19.86,0,0,1-2.25,3.14c-3.8,4.44-15.54,18.27-42.53,13.3-21.19-5.38-44.29-26.2-23.06-49.44" transform="translate(-385.71 -312.24)"/><path class="cls-2" d="M813,340.24l.21,4-3.16-.81s.44-.48.7-.74c-3.09-3.56-7.86-7.76-13.86-9.73a14,14,0,0,0-8.56-.32,10.64,10.64,0,0,0-5.89,4.92c-6.89,12.2,1.33,35.67,11.26,43-9.93-5.62-19.75-21.85-18.86-36.72a19.16,19.16,0,0,1,2.51-8.87,13.5,13.5,0,0,1,8.12-6.27,20.18,20.18,0,0,1,12.36,1,31.32,31.32,0,0,1,9.46,5.8,34.66,34.66,0,0,1,5,5.49,5.42,5.42,0,0,0,.67-.76" transform="translate(-385.71 -312.24)"/><path class="cls-5" d="M870.86,359.6a35,35,0,0,0-.5-4.93c-.55-3-1.83-7.76-5.93-11.28s-11.27-4.41-18.67-3.48a77.48,77.48,0,0,0-23,7.36,41.3,41.3,0,0,0-5.32,3.11,53.83,53.83,0,0,0-4.73,3.8,48.57,48.57,0,0,0-7.5,8.58c-4.11,6-6.3,12.37-6.5,17.77a18.33,18.33,0,0,0,.29,4.52c1,.12,1.58.17,1.58.17l-2,2-3.46-2.63s.7.12,1.54.23a22.29,22.29,0,0,1-.78-4.24c-.54-6,1.16-13.35,5.23-20.28a47.55,47.55,0,0,1,7.8-9.94,51.4,51.4,0,0,1,5.16-4.39,41.52,41.52,0,0,1,6.1-3.65,69,69,0,0,1,25.14-7.09,41.68,41.68,0,0,1,12,1.12,17.27,17.27,0,0,1,9.12,5,17.56,17.56,0,0,1,4,7.23,22.48,22.48,0,0,1,.82,6,28.69,28.69,0,0,1-.39,5" transform="translate(-385.71 -312.24)"/><path class="cls-4" d="M810.29,367.4l2.73-7.56,6.78,3.54-2.83,1.3s1.51,3.09,2.4,4.64a38.08,38.08,0,0,0,10.87,12.41,36.39,36.39,0,0,0,20.33,6.72c6.61,0,12.26-3.05,15.07-7.22a19.81,19.81,0,0,0,3.63-11.5,25.48,25.48,0,0,0-.45-4.63,21.82,21.82,0,0,1,1.24,4.56,20.15,20.15,0,0,1-2.25,12.91,18.61,18.61,0,0,1-6.55,6.85,23.15,23.15,0,0,1-10.5,3.29,37.47,37.47,0,0,1-23.46-6.85,35.17,35.17,0,0,1-8.92-9.2,48.24,48.24,0,0,1-3-4.92c-.94-1.81-2.43-5.46-2.43-5.46Z" transform="translate(-385.71 -312.24)"/><path class="cls-6" d="M823.4,365.05l-.47-6,4.45.31-1.08,1.68.19.18a36.66,36.66,0,0,0,3.56,2.9,18.44,18.44,0,0,0,4.54,2.35,14.77,14.77,0,0,0,5.27.67,12.79,12.79,0,0,0,9.77-5,19.09,19.09,0,0,0,2.91-5.54,15.86,15.86,0,0,0,.77-3,22.12,22.12,0,0,0,.14-3.3,33.48,33.48,0,0,0-3.63-13.79c-4.38-9-12.57-14.93-21.05-17.6a48.52,48.52,0,0,0-11.68-2.47,52.12,52.12,0,0,0-6.66-.15,40.81,40.81,0,0,0-5.33.69c-13.37,2.07-22,11.53-22,11.39,0,.17,4.35-8.92,20.37-14.09a54.68,54.68,0,0,1,6.56-1.45,52.3,52.3,0,0,1,7.21-.53,48.25,48.25,0,0,1,13,1.87,40.61,40.61,0,0,1,14.16,6.77,37.38,37.38,0,0,1,14.77,29.31,23.86,23.86,0,0,1-.35,4.19,18.78,18.78,0,0,1-1.19,4.05,23.5,23.5,0,0,1-4.1,6.85,17.57,17.57,0,0,1-6.37,4.62,17.28,17.28,0,0,1-7.28,1.27,18.08,18.08,0,0,1-6.6-1.44,21.61,21.61,0,0,1-5.06-3.27,39.23,39.23,0,0,1-2.89-2.87c-.08-.08-.46-.56-.46-.56Z" transform="translate(-385.71 -312.24)"/><path class="cls-1" d="M647.18,446.59a23.2,23.2,0,0,1-7.6,1.35c-3.74,0-6.82-.95-9.24-3.26a12.73,12.73,0,0,1-3.45-9.21c0-7.37,5.1-12.76,13.39-12.76a15.45,15.45,0,0,1,6.17,1.13l-.78,2.61a12.74,12.74,0,0,0-5.46-1.07c-6,0-9.94,3.75-9.94,9.95s3.78,10,9.54,10a10.31,10.31,0,0,0,4.25-.66v-7.37h-5V434.7h8.15Z" transform="translate(-385.71 -312.24)"/><path class="cls-1" d="M652,435.47c0-2.09,0-3.88-.15-5.54h2.83l.11,3.49h.15a5.31,5.31,0,0,1,4.91-3.89,3.68,3.68,0,0,1,.92.11v3a5,5,0,0,0-1.1-.11c-2.28,0-3.89,1.73-4.33,4.15a9.39,9.39,0,0,0-.15,1.5v9.47H652Z" transform="translate(-385.71 -312.24)"/><path class="cls-1" d="M678.8,442.84c0,1.84,0,3.45.15,4.85h-2.86l-.18-2.9h-.08a6.67,6.67,0,0,1-5.87,3.3c-2.79,0-6.12-1.54-6.12-7.78V429.93h3.22v9.83c0,3.38,1,5.65,4,5.65a4.65,4.65,0,0,0,4.25-2.93,4.84,4.84,0,0,0,.3-1.65v-10.9h3.22Z" transform="translate(-385.71 -312.24)"/><path class="cls-1" d="M684.16,435.73c0-2.28-.07-4.11-.14-5.8h2.89l.15,3.05h.07a7,7,0,0,1,6.31-3.45c4.29,0,7.52,3.63,7.52,9,0,6.39-3.89,9.54-8.07,9.54a6.21,6.21,0,0,1-5.46-2.79h-.08V455h-3.19Zm3.19,4.73a7.49,7.49,0,0,0,.15,1.32,5,5,0,0,0,4.84,3.78c3.41,0,5.39-2.79,5.39-6.86,0-3.56-1.87-6.6-5.28-6.6a5.15,5.15,0,0,0-4.88,4,5.21,5.21,0,0,0-.22,1.32Z" transform="translate(-385.71 -312.24)"/><path class="cls-1" d="M721.1,438.66c0,6.57-4.55,9.43-8.84,9.43-4.8,0-8.51-3.52-8.51-9.13,0-5.95,3.89-9.43,8.8-9.43C717.65,429.53,721.1,433.23,721.1,438.66Zm-14.08.19c0,3.88,2.23,6.82,5.39,6.82s5.39-2.9,5.39-6.9c0-3-1.5-6.82-5.32-6.82S707,435.47,707,438.85Z" transform="translate(-385.71 -312.24)"/><path class="cls-1" d="M748.29,421.64V443.1c0,1.58,0,3.38.14,4.59h-2.9l-.14-3.09h-.07a6.57,6.57,0,0,1-6.06,3.49c-4.29,0-7.59-3.63-7.59-9,0-5.91,3.63-9.54,8-9.54a5.92,5.92,0,0,1,5.36,2.72h.07V421.64Zm-3.23,15.52a5.78,5.78,0,0,0-.15-1.36,4.75,4.75,0,0,0-4.66-3.74c-3.33,0-5.32,2.94-5.32,6.86,0,3.59,1.77,6.57,5.25,6.57a4.86,4.86,0,0,0,4.73-3.86,5.59,5.59,0,0,0,.15-1.39Z" transform="translate(-385.71 -312.24)"/><path class="cls-1" d="M755.44,439.4c.08,4.36,2.86,6.16,6.09,6.16a11.59,11.59,0,0,0,4.92-.92L767,447a14.29,14.29,0,0,1-5.91,1.1c-5.46,0-8.73-3.59-8.73-8.95s3.16-9.57,8.33-9.57c5.79,0,7.33,5.1,7.33,8.36a11.66,11.66,0,0,1-.11,1.51Zm9.47-2.31c0-2.06-.85-5.25-4.48-5.25-3.26,0-4.69,3-4.95,5.25Z" transform="translate(-385.71 -312.24)"/><path class="cls-1" d="M783.1,423v24.73h-3.19V423Z" transform="translate(-385.71 -312.24)"/><path class="cls-1" d="M788.94,434.74c0-1.83,0-3.34-.15-4.81h2.86l.18,2.94h.08a6.52,6.52,0,0,1,5.87-3.34c2.46,0,6.27,1.47,6.27,7.56v10.6h-3.23V437.45c0-2.86-1.06-5.24-4.11-5.24a4.58,4.58,0,0,0-4.32,3.3,4.52,4.52,0,0,0-.22,1.5v10.68h-3.23Z" transform="translate(-385.71 -312.24)"/><path class="cls-1" d="M810.07,429.93l3.48,10a42.72,42.72,0,0,1,1.43,4.55h.11c.41-1.47.92-2.94,1.51-4.55l3.45-10h3.37l-7,17.76h-3.08l-6.75-17.76Z" transform="translate(-385.71 -312.24)"/><path class="cls-1" d="M827.9,439.4c.07,4.36,2.86,6.16,6.09,6.16a11.54,11.54,0,0,0,4.91-.92l.55,2.31a14.23,14.23,0,0,1-5.9,1.1c-5.47,0-8.73-3.59-8.73-8.95s3.15-9.57,8.32-9.57c5.8,0,7.34,5.1,7.34,8.36a11.66,11.66,0,0,1-.11,1.51Zm9.46-2.31c0-2.06-.84-5.25-4.47-5.25-3.27,0-4.7,3-4.95,5.25Z" transform="translate(-385.71 -312.24)"/><path class="cls-1" d="M844,444.39a8.48,8.48,0,0,0,4.26,1.28c2.34,0,3.44-1.17,3.44-2.64s-.91-2.39-3.3-3.27c-3.19-1.13-4.69-2.89-4.69-5,0-2.86,2.31-5.21,6.12-5.21a8.84,8.84,0,0,1,4.37,1.1l-.81,2.35a6.91,6.91,0,0,0-3.63-1c-1.91,0-3,1.1-3,2.42s1.06,2.13,3.37,3c3.08,1.17,4.66,2.71,4.66,5.35,0,3.12-2.42,5.32-6.64,5.32a10.08,10.08,0,0,1-5-1.21Z" transform="translate(-385.71 -312.24)"/><path class="cls-1" d="M862.9,424.84v5.09h4.62v2.46H862.9V442c0,2.2.62,3.45,2.42,3.45a7.24,7.24,0,0,0,1.87-.22l.14,2.42a7.8,7.8,0,0,1-2.86.44A4.47,4.47,0,0,1,861,446.7c-.92-1-1.25-2.54-1.25-4.63v-9.68H857v-2.46h2.75v-4.25Z" transform="translate(-385.71 -312.24)"/><path class="cls-1" d="M874.75,425a2,2,0,0,1-4,0,2,2,0,0,1,2-2A1.92,1.92,0,0,1,874.75,425Zm-3.6,22.74V429.93h3.23v17.76Z" transform="translate(-385.71 -312.24)"/><path class="cls-1" d="M895,429.93c-.07,1.29-.14,2.72-.14,4.88v10.31c0,4.07-.81,6.56-2.53,8.1a9.4,9.4,0,0,1-6.46,2.13,11.41,11.41,0,0,1-5.91-1.47l.81-2.45a10,10,0,0,0,5.21,1.39c3.3,0,5.72-1.72,5.72-6.2v-2h-.07a6.34,6.34,0,0,1-5.65,3c-4.4,0-7.56-3.74-7.56-8.65,0-6,3.93-9.43,8-9.43a5.9,5.9,0,0,1,5.54,3.08h.07l.15-2.68Zm-3.33,7a4.52,4.52,0,0,0-.19-1.47,4.64,4.64,0,0,0-4.51-3.41c-3.08,0-5.28,2.61-5.28,6.71,0,3.49,1.76,6.39,5.24,6.39a4.73,4.73,0,0,0,4.48-3.31,5.7,5.7,0,0,0,.26-1.72Z" transform="translate(-385.71 -312.24)"/><path class="cls-1" d="M910.07,447.69l-.25-2.24h-.11a6.63,6.63,0,0,1-5.43,2.64,5.06,5.06,0,0,1-5.43-5.1c0-4.29,3.81-6.64,10.67-6.6V436c0-1.47-.4-4.11-4-4.11a8.91,8.91,0,0,0-4.62,1.32l-.74-2.12a11,11,0,0,1,5.84-1.58c5.42,0,6.75,3.7,6.75,7.26v6.64a25.09,25.09,0,0,0,.29,4.26Zm-.47-9.06c-3.52-.08-7.52.55-7.52,4a2.86,2.86,0,0,0,3,3.09,4.41,4.41,0,0,0,4.29-3,3.28,3.28,0,0,0,.19-1Z" transform="translate(-385.71 -312.24)"/><path class="cls-1" d="M930.58,447a11.89,11.89,0,0,1-5.1,1c-5.35,0-8.84-3.63-8.84-9.06s3.75-9.42,9.54-9.42a10.82,10.82,0,0,1,4.48.91l-.74,2.5a7.47,7.47,0,0,0-3.74-.85c-4.07,0-6.27,3-6.27,6.72,0,4.11,2.64,6.64,6.16,6.64a9,9,0,0,0,4-.89Z" transform="translate(-385.71 -312.24)"/><path class="cls-1" d="M938,425a2,2,0,0,1-4,0,2,2,0,0,1,2-2A1.92,1.92,0,0,1,938,425Zm-3.6,22.74V429.93h3.23v17.76Z" transform="translate(-385.71 -312.24)"/><path class="cls-1" d="M959,438.66c0,6.57-4.55,9.43-8.84,9.43-4.8,0-8.51-3.52-8.51-9.13,0-5.95,3.89-9.43,8.81-9.43C955.57,429.53,959,433.23,959,438.66Zm-14.08.19c0,3.88,2.24,6.82,5.39,6.82s5.39-2.9,5.39-6.9c0-3-1.5-6.82-5.32-6.82S944.93,435.47,944.93,438.85Zm10.23-16.58-4.47,5.24h-2.31l3.23-5.24Z" transform="translate(-385.71 -312.24)"/><path class="cls-1" d="M963.09,434.74c0-1.83,0-3.34-.15-4.81h2.86l.19,2.94h.07a6.52,6.52,0,0,1,5.87-3.34c2.46,0,6.27,1.47,6.27,7.56v10.6H975V437.45c0-2.86-1.06-5.24-4.11-5.24a4.58,4.58,0,0,0-4.32,3.3,4.52,4.52,0,0,0-.22,1.5v10.68h-3.23Z" transform="translate(-385.71 -312.24)"/></svg>