<svg xmlns="http://www.w3.org/2000/svg" xmlns:xlink="http://www.w3.org/1999/xlink" viewBox="0 0 301.84991 260.72634">
  <defs>
    <style>
      .cls-1 {
        fill: none;
      }

      .cls-2 {
        fill: url(#Degradado_sin_nombre_13);
      }

      .cls-3 {
        fill: gray;
      }

      .cls-4 {
        clip-path: url(#clip-path);
      }

      .cls-5 {
        fill: url(#Degradado_sin_nombre_39);
      }

      .cls-6 {
        fill: url(#Degradado_sin_nombre_30);
      }

      .cls-7 {
        fill: url(#Degradado_sin_nombre_103);
      }

      .cls-8 {
        fill: url(#Degradado_sin_nombre_80);
      }
    </style>
    <linearGradient id="Degradado_sin_nombre_13" data-name="Degradado sin nombre 13" x1="150.92495" y1="208.14147" x2="150.92495" y2="0.44799" gradientUnits="userSpaceOnUse">
      <stop offset="0.00279" stop-color="#ccc"/>
      <stop offset="0.24197" stop-color="#dadada"/>
      <stop offset="0.55028" stop-color="#f2f2f2"/>
      <stop offset="0.97074" stop-color="#b7b7b7"/>
      <stop offset="1" stop-color="#b3b3b3"/>
    </linearGradient>
    <clipPath id="clip-path" transform="translate(0 26.72496)">
      <path class="cls-1" d="M305.47368,47.84911V187.27067A20.41766,20.41766,0,0,1,285.051,207.69348H24.06136A20.43024,20.43024,0,0,1,3.62377,187.27067V20.4229A20.43032,20.43032,0,0,1,24.06136,0H258.35894V27.4263a20.41765,20.41765,0,0,0,20.42272,20.42281Z"/>
    </clipPath>
    <linearGradient id="Degradado_sin_nombre_39" data-name="Degradado sin nombre 39" x1="1480.15192" y1="-3646.51607" x2="1704.61672" y2="-3646.51607" gradientTransform="translate(1586.07719 3784.96169) rotate(-45)" gradientUnits="userSpaceOnUse">
      <stop offset="0.05774" stop-color="#ab1724"/>
      <stop offset="0.1918" stop-color="#f15a24"/>
      <stop offset="0.24404" stop-color="#ec5324"/>
      <stop offset="0.38931" stop-color="#e24724"/>
      <stop offset="0.58129" stop-color="#dc3f24"/>
      <stop offset="1" stop-color="#da3d24"/>
    </linearGradient>
    <linearGradient id="Degradado_sin_nombre_30" data-name="Degradado sin nombre 30" x1="1648.11174" y1="-3597.08548" x2="1648.12252" y2="-3597.08548" gradientTransform="translate(1586.07719 3811.68665) rotate(-45)" gradientUnits="userSpaceOnUse">
      <stop offset="0" stop-color="#f15a24"/>
      <stop offset="0.94226" stop-color="#ab1724"/>
    </linearGradient>
    <linearGradient id="Degradado_sin_nombre_103" data-name="Degradado sin nombre 103" x1="1476.79553" y1="-3567.31249" x2="1673.87227" y2="-3567.31249" gradientTransform="translate(1586.07719 3784.96169) rotate(-45)" gradientUnits="userSpaceOnUse">
      <stop offset="0.00279" stop-color="#ae1924"/>
      <stop offset="0.27933" stop-color="#f15a24"/>
      <stop offset="0.81844" stop-color="#ae1924"/>
      <stop offset="1" stop-color="#571724"/>
    </linearGradient>
    <linearGradient id="Degradado_sin_nombre_80" data-name="Degradado sin nombre 80" x1="105.18085" y1="183.88749" x2="228.85947" y2="46.00697" gradientUnits="userSpaceOnUse">
      <stop offset="0" stop-color="#601724"/>
      <stop offset="0.03426" stop-color="#711724"/>
      <stop offset="0.10847" stop-color="#911724"/>
      <stop offset="0.17109" stop-color="#a41724"/>
      <stop offset="0.21416" stop-color="#ab1724"/>
      <stop offset="0.40937" stop-color="#bb2724"/>
      <stop offset="0.79205" stop-color="#e65024"/>
      <stop offset="0.87895" stop-color="#f15a24"/>
      <stop offset="0.94895" stop-color="#c02b24"/>
      <stop offset="0.98603" stop-color="#ab1724"/>
    </linearGradient>
  </defs>
  <g id="Capa_2" data-name="Capa 2">
    <g id="Escritorio">
      <g>
        <path class="cls-2" d="M301.84991,48.2971V187.71866a20.41766,20.41766,0,0,1-20.42272,20.42281H20.43759A20.43024,20.43024,0,0,1,0,187.71866V20.87089A20.43032,20.43032,0,0,1,20.43759.448H254.73517v27.4263A20.41765,20.41765,0,0,0,275.15789,48.2971Z" transform="translate(0 26.72496)"/>
        <path class="cls-3" d="M301.65921,48.2971H275.15789a20.41765,20.41765,0,0,1-20.42272-20.42281V.69765Z" transform="translate(0 26.72496)"/>
      </g>
      <g class="cls-4">
        <g>
          <g>
            <path class="cls-5" d="M185.08263-26.725,211.08322-.72437l-132.738,132.738.01838.01838a26.01608,26.01608,0,0,0,0,36.7976,25.74225,25.74225,0,0,0,15.22186,7.40007,44.44878,44.44878,0,0,1-35.82412-75.63335Z" transform="translate(0 26.72496)"/>
            <polygon class="cls-6" points="207.952 102.764 207.944 102.772 207.945 102.773 207.952 102.764"/>
          </g>
          <path class="cls-7" d="M225.94194,68.6299a25.9864,25.9864,0,0,1-6.44218,17.4195c-.02465.03272-.04.06937-.06466.1012a7.92537,7.92537,0,0,1-.63815.72466c-.02107.02107-.04729.0334-.06859.05425l-.251.251c-.05772.05884-.106.12351-.1643.18178s-.12294.10658-.18178.1643L97.63882,208.01905l25.98233,25.98233L239.34329,118.27923c1.02838-1.02838,1.98325-2.09352,2.90146-3.19531a43.911,43.911,0,0,0,9.78688-23.081,25.95344,25.95344,0,0,0-26.08969-23.373Z" transform="translate(0 26.72496)"/>
          <path class="cls-8" d="M176.52672,55.46266l-87.3295,87.32951-.03676.03676c-.017.017-.03732.02634-.054.04281a26.00622,26.00622,0,0,1-18.33424,7.54655,25.9091,25.9091,0,0,0,22.81323,25.81142,43.99388,43.99388,0,0,0,23.742-9.86019c1.10179-.91821,2.20358-1.90994,3.25034-2.9567L207.944,76.04655a26.02948,26.02948,0,0,1,36.61424.18335,25.72745,25.72745,0,0,1,7.47336,15.773,44.4044,44.4044,0,0,0-75.50491-36.54028Z" transform="translate(0 26.72496)"/>
        </g>
      </g>
    </g>
  </g>
</svg>
