<svg id="Capa_1" data-name="Capa 1" xmlns="http://www.w3.org/2000/svg" viewBox="0 0 150.21 145.99"><defs><style>.cls-1{fill-rule:evenodd;}</style></defs><polygon class="cls-1" points="0 64.79 68.75 64.79 28.41 135.01 19.84 126.96 45.55 82.37 46.2 81.12 46.52 79.93 46.36 78.51 45.93 77.75 45.34 77.15 43.94 76.44 42.18 76.11 0 76.11 0 64.79"/><path class="cls-1" d="M87.23,17.43a16.2,16.2,0,1,1-16.09,16.2,16.18,16.18,0,0,1,16.09-16.2" transform="translate(-11.99 -17.43)"/><polygon class="cls-1" points="74.86 76.6 36.98 141.01 47.05 145.99 71.86 104.09 72.61 103.13 73.69 102.59 75.08 102.32 76.63 102.59 77.59 103.24 78.29 104.09 103.33 145.99 113.61 140.64 74.86 76.6"/><polygon class="cls-1" points="80.66 64.71 150.21 64.71 150.21 75.83 107.72 75.83 106.37 76.27 105.14 76.86 104.12 77.95 103.69 79.26 103.69 80.44 104.02 81.69 130.28 126.87 122.02 134.69 80.66 64.71"/><path class="cls-1" d="M28.6,69.69v.06a2.81,2.81,0,0,0-.08.6A2,2,0,0,0,30,72.21a12.16,12.16,0,0,0,4.43.61,10.21,10.21,0,0,0,3.56-.5c.86-.33,1.3-.8,1.3-1.38,0-.88-1.71-1.59-5.12-2.16-.4-.06-.7-.1-.88-.14l-1-.16q-8.13-1.32-10.43-2.88a5.32,5.32,0,0,1-1.72-1.79,4.86,4.86,0,0,1-.56-2.33q0-3.16,3.73-4.83T34.22,55q7.1,0,10.52,1.55c2.27,1,3.42,2.63,3.42,4.79v.24h-9v-.1c0-.73-.46-1.29-1.37-1.67a10.48,10.48,0,0,0-4-.58,9.56,9.56,0,0,0-3.15.41c-.73.28-1.1.66-1.1,1.17,0,.88,1.95,1.65,5.86,2.28l1.77.27c2.79.46,4.77.87,6,1.2a15.41,15.41,0,0,1,3,1.19,5.93,5.93,0,0,1,2.21,2,4.71,4.71,0,0,1,.79,2.62c0,2.17-1.36,3.86-4.06,5s-6.62,1.76-11.7,1.76-8.67-.57-10.92-1.7A5.67,5.67,0,0,1,19.17,70v-.32Zm24.56,7.09V55.32H78.72V60h-16v3.42H77.51v4.57H62.76v4.15H79.31v4.69Zm30.16,0V55.32H95.47l13,14.4V55.32h9.22V76.78H105.09L92.52,62.33V76.78Zm59.15-8.56-4.59-7.8L133,68.22Zm-14.62,8.56h-9.61l14.85-21.46h10.64L157.9,76.78H147.21l-2.15-3.88H130.17Z" transform="translate(-11.99 -17.43)"/></svg>