<svg id="Capa_1" data-name="Capa 1" xmlns="http://www.w3.org/2000/svg" viewBox="0 0 707.78 239.12"><defs><style>.cls-1{fill:none;stroke:#308e8c;stroke-miterlimit:10;stroke-width:7.49px;}.cls-2{fill:#308e8c;}.cls-3{fill:#fff;}.cls-4{fill:#7bb74f;}.cls-5{fill:#59b3e3;}.cls-6{fill:#ec8021;}.cls-7{fill:#b9c100;}</style></defs><line class="cls-1" x1="707.78" y1="136.2" y2="136.2"/><path class="cls-2" d="M126.56,176.33a6.37,6.37,0,0,0,2.1,2.5,8.61,8.61,0,0,0,3.16,1.34,17.89,17.89,0,0,0,3.9.4,10.78,10.78,0,0,0,2.58-.34,9.11,9.11,0,0,0,2.61-1.08,6.43,6.43,0,0,0,2-1.91,4.83,4.83,0,0,0,.81-2.82,4.12,4.12,0,0,0-.57-2.2,5.19,5.19,0,0,0-1.49-1.57,8.49,8.49,0,0,0-2-1,20.26,20.26,0,0,0-2.16-.66l-6.74-1.65a20.35,20.35,0,0,1-2.57-.85,7.24,7.24,0,0,1-2.18-1.36A6.23,6.23,0,0,1,124.5,163a7.15,7.15,0,0,1-.57-3,9.69,9.69,0,0,1,.42-2.59,7.15,7.15,0,0,1,1.59-2.8,9.47,9.47,0,0,1,3.2-2.23,13,13,0,0,1,5.22-.91,15,15,0,0,1,4.28.6,10.36,10.36,0,0,1,3.56,1.78,8.54,8.54,0,0,1,3.35,7h-2.88a7.22,7.22,0,0,0-.78-3,6.84,6.84,0,0,0-1.83-2.16,7.86,7.86,0,0,0-2.58-1.31,10.43,10.43,0,0,0-3.08-.45,12.79,12.79,0,0,0-2.86.32,7.13,7.13,0,0,0-2.42,1,5.29,5.29,0,0,0-1.67,1.84,5.74,5.74,0,0,0-.64,2.84,4.39,4.39,0,0,0,.36,1.85,3.77,3.77,0,0,0,1,1.33,5.27,5.27,0,0,0,1.46.9,12.94,12.94,0,0,0,1.76.55l7.38,1.82a21.15,21.15,0,0,1,3,1,10.17,10.17,0,0,1,2.5,1.52,6.47,6.47,0,0,1,1.7,2.23,7.49,7.49,0,0,1,.61,3.18,11.52,11.52,0,0,1-.1,1.36,6.85,6.85,0,0,1-.51,1.8,8.76,8.76,0,0,1-1.15,1.93,7.11,7.11,0,0,1-2,1.76,12.06,12.06,0,0,1-3.2,1.27,20.84,20.84,0,0,1-9.54-.13,10.58,10.58,0,0,1-3.9-1.88,8.19,8.19,0,0,1-2.48-3.27,10.74,10.74,0,0,1-.75-4.79h2.89a8.48,8.48,0,0,0,.72,3.9"/><path class="cls-2" d="M153.4,156.4h-2.67v-4.28h2.67Zm0,26h-2.67V160.52h2.67Z"/><path class="cls-2" d="M171.12,164.78a4.39,4.39,0,0,0-1.25-1.51,5.38,5.38,0,0,0-1.8-.87,8.41,8.41,0,0,0-2.16-.27,8.63,8.63,0,0,0-1.81.19,5.6,5.6,0,0,0-1.67.63,3.63,3.63,0,0,0-1.23,1.17,3.21,3.21,0,0,0-.47,1.78,2.5,2.5,0,0,0,.45,1.51,4,4,0,0,0,1.12,1,7.56,7.56,0,0,0,1.49.7c.53.18,1,.33,1.48.44l3.56.8a10.5,10.5,0,0,1,2.27.62,7.65,7.65,0,0,1,2,1.16,5.69,5.69,0,0,1,1.42,1.79,5.3,5.3,0,0,1,.55,2.5,5.43,5.43,0,0,1-.8,3,6.68,6.68,0,0,1-2.06,2,8.81,8.81,0,0,1-2.82,1.12,14.92,14.92,0,0,1-3.09.34,10.09,10.09,0,0,1-6.26-1.82c-1.59-1.22-2.51-3.17-2.73-5.86H160a5.28,5.28,0,0,0,2,4.1,7.2,7.2,0,0,0,4.48,1.37,10.1,10.1,0,0,0,2-.21,6.5,6.5,0,0,0,1.93-.72,4.67,4.67,0,0,0,1.46-1.29,3.22,3.22,0,0,0,.57-1.93A3.09,3.09,0,0,0,172,175a3.65,3.65,0,0,0-1.08-1.1,7.18,7.18,0,0,0-1.55-.74,17.72,17.72,0,0,0-1.76-.51l-3.43-.76a19.64,19.64,0,0,1-2.42-.79,7.53,7.53,0,0,1-1.93-1.1,4.6,4.6,0,0,1-1.29-1.61,5.35,5.35,0,0,1-.47-2.35,5.27,5.27,0,0,1,.74-2.84,5.87,5.87,0,0,1,1.93-1.91,9.14,9.14,0,0,1,2.65-1.06,12.69,12.69,0,0,1,2.91-.34,10.8,10.8,0,0,1,3.07.42,7.22,7.22,0,0,1,2.5,1.32,6.43,6.43,0,0,1,1.72,2.2,8.08,8.08,0,0,1,.72,3.1h-2.67a5,5,0,0,0-.51-2.14"/><path class="cls-2" d="M187.62,160.52v2.24h-4.46v14.76a4.82,4.82,0,0,0,.36,2.06c.24.49.84.76,1.81.82a19.66,19.66,0,0,0,2.29-.13v2.25c-.4,0-.8,0-1.19,0s-.79.05-1.19.05a5.3,5.3,0,0,1-3.73-1c-.71-.69-1-2-1-3.84v-15h-3.81v-2.24h3.81v-6.58h2.67v6.58Z"/><path class="cls-2" d="M193.45,175.16a7.88,7.88,0,0,0,1.29,2.78,7.36,7.36,0,0,0,2.25,2,6.33,6.33,0,0,0,3.26.8,6.48,6.48,0,0,0,4.58-1.53,8,8,0,0,0,2.29-4.06h2.67a10.57,10.57,0,0,1-3.12,5.76,9.27,9.27,0,0,1-6.42,2,10.27,10.27,0,0,1-4.47-.91,8.34,8.34,0,0,1-3.08-2.5,11,11,0,0,1-1.76-3.69,16.88,16.88,0,0,1-.57-4.44,16,16,0,0,1,.57-4.24,11.45,11.45,0,0,1,1.76-3.71,8.84,8.84,0,0,1,3.08-2.62,9.36,9.36,0,0,1,4.47-1,8.64,8.64,0,0,1,7.53,3.84,11.64,11.64,0,0,1,1.67,3.94,17.56,17.56,0,0,1,.43,4.52H193a11.73,11.73,0,0,0,.41,3M206.67,167a8,8,0,0,0-1.37-2.48,7,7,0,0,0-2.17-1.74,6.26,6.26,0,0,0-2.88-.65,6.34,6.34,0,0,0-2.92.65,7,7,0,0,0-2.17,1.74,8.74,8.74,0,0,0-1.42,2.5,12.35,12.35,0,0,0-.7,2.91H207.2a9.32,9.32,0,0,0-.53-2.93"/><path class="cls-2" d="M215.94,160.52v3.68h.13a8.34,8.34,0,0,1,2.77-3.17,7.73,7.73,0,0,1,4.39-1.15,7.41,7.41,0,0,1,3.92,1.06,5.21,5.21,0,0,1,2.36,3.22,6.73,6.73,0,0,1,2.88-3.22,8.21,8.21,0,0,1,4.07-1.06q7.26,0,7.25,7.67v14.84H241V167.68a6.45,6.45,0,0,0-1.14-4.13c-.77-1-2.11-1.42-4-1.42a5.79,5.79,0,0,0-2.88.65,5.07,5.07,0,0,0-1.83,1.76,7.51,7.51,0,0,0-.95,2.53,14.88,14.88,0,0,0-.28,2.94v12.38h-2.67V167.55a9.43,9.43,0,0,0-.23-2.09,4.76,4.76,0,0,0-.77-1.74,3.49,3.49,0,0,0-1.42-1.17,5,5,0,0,0-2.16-.42,6.64,6.64,0,0,0-3,.61,5.43,5.43,0,0,0-2,1.7,7.71,7.71,0,0,0-1.17,2.54,12.88,12.88,0,0,0-.38,3.2v12.21h-2.67V160.52Z"/><path class="cls-2" d="M249.35,163.91a6.15,6.15,0,0,1,1.85-2.29,7.8,7.8,0,0,1,2.73-1.32,13.49,13.49,0,0,1,3.48-.42,15.6,15.6,0,0,1,2.88.27,7.31,7.31,0,0,1,2.59,1,5.7,5.7,0,0,1,1.86,2.15,7.69,7.69,0,0,1,.72,3.58v11.62a1.41,1.41,0,0,0,1.57,1.61,2.11,2.11,0,0,0,.85-.17v2.24c-.31.06-.59.1-.83.13a7.67,7.67,0,0,1-.91,0,4.1,4.1,0,0,1-1.63-.27,2.24,2.24,0,0,1-.95-.78,2.93,2.93,0,0,1-.45-1.21,10.63,10.63,0,0,1-.1-1.55h-.09a18.9,18.9,0,0,1-1.46,1.88,7,7,0,0,1-1.66,1.38,7.56,7.56,0,0,1-2.07.85,11.32,11.32,0,0,1-2.78.3,10.93,10.93,0,0,1-2.86-.36,6.41,6.41,0,0,1-2.34-1.15,5.49,5.49,0,0,1-1.56-2,6.52,6.52,0,0,1-.58-2.86,5.68,5.68,0,0,1,1-3.59,6.53,6.53,0,0,1,2.69-2,15.38,15.38,0,0,1,3.78-.95l4.26-.53c.56-.06,1.06-.13,1.48-.21a2.64,2.64,0,0,0,1.06-.45,2.1,2.1,0,0,0,.66-.87,3.84,3.84,0,0,0,.23-1.44,5,5,0,0,0-.44-2.23,3.62,3.62,0,0,0-1.23-1.37,4.87,4.87,0,0,0-1.82-.7,12.19,12.19,0,0,0-2.23-.19,6.73,6.73,0,0,0-4.16,1.21,4.7,4.7,0,0,0-1.69,3.87h-2.67a8.8,8.8,0,0,1,.8-3.3m13.36,6.53a1.58,1.58,0,0,1-1,.68,8.91,8.91,0,0,1-1.27.29c-1.13.2-2.3.38-3.5.53a19.69,19.69,0,0,0-3.28.7,6.44,6.44,0,0,0-2.44,1.34,3.17,3.17,0,0,0-1,2.48,3.85,3.85,0,0,0,.41,1.8,4.45,4.45,0,0,0,1.08,1.36,4.71,4.71,0,0,0,1.57.87,5.92,5.92,0,0,0,1.82.29,9.26,9.26,0,0,0,2.93-.46,7.39,7.39,0,0,0,2.43-1.36,6.44,6.44,0,0,0,1.66-2.16,6.56,6.56,0,0,0,.61-2.89v-3.47Z"/><path class="cls-2" d="M299.38,182.39v-4.15h-.08a6.18,6.18,0,0,1-1.25,1.95,7.86,7.86,0,0,1-1.89,1.5,9.74,9.74,0,0,1-2.27,1,9,9,0,0,1-2.39.34,9.82,9.82,0,0,1-4.35-.91,8.82,8.82,0,0,1-3.07-2.5,10.91,10.91,0,0,1-1.83-3.69,17,17,0,0,1,0-8.87,10.77,10.77,0,0,1,1.83-3.68,8.79,8.79,0,0,1,3.07-2.53,10.28,10.28,0,0,1,6.74-.63,7.81,7.81,0,0,1,2.19.91,7.65,7.65,0,0,1,1.8,1.5,6.43,6.43,0,0,1,1.21,2.08h.08V152.12h2.67v30.27Zm-14.64-7.56a9.07,9.07,0,0,0,1.27,3,7,7,0,0,0,2.22,2.15,6.2,6.2,0,0,0,3.27.82,7.18,7.18,0,0,0,3.58-.82,7,7,0,0,0,2.38-2.15,8.93,8.93,0,0,0,1.31-3,14.44,14.44,0,0,0,0-6.75,9.07,9.07,0,0,0-1.31-3,6.85,6.85,0,0,0-6-3,6.2,6.2,0,0,0-3.27.82,7.09,7.09,0,0,0-2.22,2.14,9.22,9.22,0,0,0-1.27,3,14.1,14.1,0,0,0,0,6.75"/><path class="cls-2" d="M308.9,175.16a8.08,8.08,0,0,0,1.3,2.78,7.44,7.44,0,0,0,2.24,2,6.39,6.39,0,0,0,3.27.8,6.48,6.48,0,0,0,4.58-1.53,8.05,8.05,0,0,0,2.29-4.06h2.67a10.7,10.7,0,0,1-3.12,5.76,9.27,9.27,0,0,1-6.42,2,10.24,10.24,0,0,1-4.47-.91,8.34,8.34,0,0,1-3.08-2.5,11,11,0,0,1-1.76-3.69,16.88,16.88,0,0,1-.57-4.44,16,16,0,0,1,.57-4.24,11.45,11.45,0,0,1,1.76-3.71,8.84,8.84,0,0,1,3.08-2.62,9.34,9.34,0,0,1,4.47-1,8.67,8.67,0,0,1,7.53,3.84,11.64,11.64,0,0,1,1.67,3.94,17.12,17.12,0,0,1,.42,4.52H308.5a11.71,11.71,0,0,0,.4,3M322.13,167a7.81,7.81,0,0,0-1.38-2.48,6.8,6.8,0,0,0-2.16-1.74,6.29,6.29,0,0,0-2.88-.65,6.42,6.42,0,0,0-2.93.65,6.91,6.91,0,0,0-2.16,1.74,8.74,8.74,0,0,0-1.42,2.5,12.35,12.35,0,0,0-.7,2.91h14.16a9.61,9.61,0,0,0-.53-2.93"/><rect class="cls-2" x="341.45" y="152.12" width="2.88" height="30.27"/><path class="cls-2" d="M352.77,160.52v3.77h.08a6.4,6.4,0,0,1,2.72-3.2,7.92,7.92,0,0,1,4.28-1.21,11,11,0,0,1,3.84.59,5.83,5.83,0,0,1,3.79,4.33,14.61,14.61,0,0,1,.38,3.52v14.07h-2.67V168.74a13.44,13.44,0,0,0-.25-2.61,5.68,5.68,0,0,0-.89-2.1,4.42,4.42,0,0,0-1.72-1.4,6.3,6.3,0,0,0-2.69-.5,6.87,6.87,0,0,0-2.87.57,6,6,0,0,0-2.11,1.57,7.07,7.07,0,0,0-1.36,2.37,9.61,9.61,0,0,0-.53,3v12.76H350.1V160.52Z"/><polygon class="cls-2" points="373.42 160.52 380.29 179.72 380.37 179.72 387.16 160.52 389.91 160.52 381.73 182.4 378.89 182.4 370.45 160.52 373.42 160.52"/><path class="cls-2" d="M394.51,175.16a8.25,8.25,0,0,0,1.29,2.78,7.59,7.59,0,0,0,2.25,2,6.39,6.39,0,0,0,3.27.8,6.46,6.46,0,0,0,4.57-1.53,8,8,0,0,0,2.3-4.06h2.67a10.7,10.7,0,0,1-3.12,5.76,9.27,9.27,0,0,1-6.42,2,10.32,10.32,0,0,1-4.48-.91,8.39,8.39,0,0,1-3.07-2.5,11,11,0,0,1-1.76-3.69,16.88,16.88,0,0,1-.57-4.44,16,16,0,0,1,.57-4.24,11.45,11.45,0,0,1,1.76-3.71,8.9,8.9,0,0,1,3.07-2.62,9.4,9.4,0,0,1,4.48-1,8.91,8.91,0,0,1,4.49,1.06,8.81,8.81,0,0,1,3,2.78,11.46,11.46,0,0,1,1.68,3.94,17.12,17.12,0,0,1,.42,4.52H394.11a11.71,11.71,0,0,0,.4,3M407.74,167a7.81,7.81,0,0,0-1.38-2.48,6.8,6.8,0,0,0-2.16-1.74,6.29,6.29,0,0,0-2.88-.65,6.39,6.39,0,0,0-2.93.65,6.8,6.8,0,0,0-2.16,1.74,8.51,8.51,0,0,0-1.42,2.5,11.88,11.88,0,0,0-.7,2.91h14.16a9.61,9.61,0,0,0-.53-2.93"/><path class="cls-2" d="M427.14,164.78a4.39,4.39,0,0,0-1.25-1.51,5.38,5.38,0,0,0-1.8-.87,8.43,8.43,0,0,0-2.17-.27,8.61,8.61,0,0,0-1.8.19,5.5,5.5,0,0,0-1.67.63,3.63,3.63,0,0,0-1.23,1.17,3.21,3.21,0,0,0-.47,1.78,2.5,2.5,0,0,0,.45,1.51,4,4,0,0,0,1.12,1,7.75,7.75,0,0,0,1.48.7c.54.18,1,.33,1.49.44l3.56.8a10.5,10.5,0,0,1,2.27.62,7.65,7.65,0,0,1,2,1.16,5.83,5.83,0,0,1,1.42,1.79,5.3,5.3,0,0,1,.55,2.5,5.52,5.52,0,0,1-.8,3,6.79,6.79,0,0,1-2.06,2,8.81,8.81,0,0,1-2.82,1.12,15,15,0,0,1-3.09.34,10.09,10.09,0,0,1-6.26-1.82q-2.4-1.83-2.73-5.86H416a5.28,5.28,0,0,0,2,4.1,7.19,7.19,0,0,0,4.47,1.37,10.27,10.27,0,0,0,2-.21,6.5,6.5,0,0,0,1.93-.72,4.67,4.67,0,0,0,1.46-1.29,3.22,3.22,0,0,0,.57-1.93A3.09,3.09,0,0,0,428,175a3.65,3.65,0,0,0-1.08-1.1,7.42,7.42,0,0,0-1.55-.74,17.72,17.72,0,0,0-1.76-.51l-3.43-.76a19.1,19.1,0,0,1-2.42-.79,7.37,7.37,0,0,1-1.93-1.1,4.6,4.6,0,0,1-1.29-1.61,5.35,5.35,0,0,1-.47-2.35,5.27,5.27,0,0,1,.74-2.84,5.87,5.87,0,0,1,1.93-1.91,9.14,9.14,0,0,1,2.65-1.06,12.63,12.63,0,0,1,2.91-.34,10.8,10.8,0,0,1,3.07.42,7.22,7.22,0,0,1,2.5,1.32,6.43,6.43,0,0,1,1.72,2.2,8.08,8.08,0,0,1,.72,3.1h-2.67a5,5,0,0,0-.51-2.14"/><path class="cls-2" d="M443.64,160.52v2.24h-4.46v14.76a4.82,4.82,0,0,0,.36,2.06c.24.49.84.76,1.8.82a19.7,19.7,0,0,0,2.3-.13v2.25c-.4,0-.8,0-1.19,0s-.8.05-1.19.05a5.3,5.3,0,0,1-3.73-1c-.71-.69-1-2-1-3.84v-15h-3.82v-2.24h3.82v-6.58h2.67v6.58Z"/><path class="cls-2" d="M450.21,156.4h-2.68v-4.28h2.68Zm0,26h-2.68V160.52h2.68Z"/><path class="cls-2" d="M473.29,185a8.55,8.55,0,0,1-1.67,3.31,7.49,7.49,0,0,1-3,2.08,12.47,12.47,0,0,1-4.51.72,13.86,13.86,0,0,1-3.23-.38,9.51,9.51,0,0,1-2.82-1.19,7.29,7.29,0,0,1-2.08-2.06,6.19,6.19,0,0,1-.95-3h2.67a4.73,4.73,0,0,0,.83,2.06,4.81,4.81,0,0,0,1.48,1.33,6.69,6.69,0,0,0,1.93.75,10.45,10.45,0,0,0,2.17.23c2.48,0,4.28-.71,5.38-2.12a9.79,9.79,0,0,0,1.65-6.11v-3h-.08a7.85,7.85,0,0,1-2.74,3.26,7.27,7.27,0,0,1-4.21,1.23,10.56,10.56,0,0,1-4.5-.87,8.39,8.39,0,0,1-3.07-2.39,9.65,9.65,0,0,1-1.76-3.59,16.76,16.76,0,0,1-.55-4.39,13.61,13.61,0,0,1,.65-4.26,10.78,10.78,0,0,1,1.91-3.52,8.87,8.87,0,0,1,3.09-2.37,9.84,9.84,0,0,1,4.23-.87,7.49,7.49,0,0,1,4.28,1.29,9,9,0,0,1,1.59,1.42,6.94,6.94,0,0,1,1.08,1.7h.08v-3.77h2.68v20.09a16.39,16.39,0,0,1-.54,4.37m-6.12-5.83a6.86,6.86,0,0,0,2.2-2,8.45,8.45,0,0,0,1.34-2.78,11.59,11.59,0,0,0,.44-3.22,13.62,13.62,0,0,0-.38-3.22,9.1,9.1,0,0,0-1.23-2.93,6.59,6.59,0,0,0-2.18-2.12,6.23,6.23,0,0,0-3.24-.8,6.43,6.43,0,0,0-3.27.78A7,7,0,0,0,458.6,165a8.68,8.68,0,0,0-1.29,2.9,13.8,13.8,0,0,0-.41,3.33,12.38,12.38,0,0,0,.43,3.22,8.2,8.2,0,0,0,1.31,2.78,6.82,6.82,0,0,0,2.25,2,6.56,6.56,0,0,0,3.23.74,6.07,6.07,0,0,0,3.05-.74"/><path class="cls-2" d="M479.46,163.91a6.25,6.25,0,0,1,1.85-2.29A7.8,7.8,0,0,1,484,160.3a13.49,13.49,0,0,1,3.48-.42,15.6,15.6,0,0,1,2.88.27,7.23,7.23,0,0,1,2.59,1,5.7,5.7,0,0,1,1.86,2.15,7.56,7.56,0,0,1,.73,3.58v11.62a1.4,1.4,0,0,0,1.56,1.61A2.11,2.11,0,0,0,498,180v2.24c-.31.06-.58.1-.82.13a7.86,7.86,0,0,1-.92,0,4.13,4.13,0,0,1-1.63-.27,2.24,2.24,0,0,1-.95-.78,2.93,2.93,0,0,1-.45-1.21,10.56,10.56,0,0,1-.11-1.55H493a18.9,18.9,0,0,1-1.46,1.88,7,7,0,0,1-1.66,1.38,7.56,7.56,0,0,1-2.07.85,11.32,11.32,0,0,1-2.78.3,10.93,10.93,0,0,1-2.86-.36,6.41,6.41,0,0,1-2.34-1.15,5.49,5.49,0,0,1-1.56-2,6.66,6.66,0,0,1-.58-2.86,5.68,5.68,0,0,1,1-3.59,6.53,6.53,0,0,1,2.69-2,15.38,15.38,0,0,1,3.78-.95l4.26-.53c.57-.06,1.06-.13,1.48-.21a2.64,2.64,0,0,0,1.06-.45,2,2,0,0,0,.66-.87,3.65,3.65,0,0,0,.23-1.44,4.87,4.87,0,0,0-.44-2.23,3.62,3.62,0,0,0-1.23-1.37,4.87,4.87,0,0,0-1.82-.7,12.19,12.19,0,0,0-2.23-.19,6.73,6.73,0,0,0-4.16,1.21,4.7,4.7,0,0,0-1.69,3.87h-2.67a8.8,8.8,0,0,1,.8-3.3m13.36,6.53a1.58,1.58,0,0,1-1,.68,8.91,8.91,0,0,1-1.27.29c-1.13.2-2.29.38-3.49.53a19.59,19.59,0,0,0-3.29.7,6.44,6.44,0,0,0-2.44,1.34,3.17,3.17,0,0,0-1,2.48,3.85,3.85,0,0,0,.41,1.8,4.45,4.45,0,0,0,1.08,1.36,4.71,4.71,0,0,0,1.57.87,5.92,5.92,0,0,0,1.82.29,9.26,9.26,0,0,0,2.93-.46,7.39,7.39,0,0,0,2.43-1.36,6.44,6.44,0,0,0,1.66-2.16,6.56,6.56,0,0,0,.61-2.89v-3.47Z"/><path class="cls-2" d="M514.32,163.53a5.8,5.8,0,0,0-4.16-1.4,6.83,6.83,0,0,0-3.35.8,7.39,7.39,0,0,0-2.39,2.12,9.66,9.66,0,0,0-1.45,3,12.39,12.39,0,0,0,0,6.83,9.66,9.66,0,0,0,1.45,3,7.39,7.39,0,0,0,2.39,2.12,6.83,6.83,0,0,0,3.35.8,5.91,5.91,0,0,0,2.33-.46,6.34,6.34,0,0,0,2-1.3,6.7,6.7,0,0,0,1.4-2,7.07,7.07,0,0,0,.68-2.5h2.67a10.09,10.09,0,0,1-2.92,6.21,8.56,8.56,0,0,1-6.11,2.23,10.37,10.37,0,0,1-4.43-.91,9.41,9.41,0,0,1-3.24-2.48,11,11,0,0,1-2-3.67,15.28,15.28,0,0,1,0-9,11,11,0,0,1,2-3.67,9.71,9.71,0,0,1,3.24-2.5,10.09,10.09,0,0,1,4.43-.93,9.54,9.54,0,0,1,6,1.86,8,8,0,0,1,2.9,5.64h-2.67a7.36,7.36,0,0,0-2-3.85"/><path class="cls-2" d="M525.64,156.4H523v-4.28h2.67Zm0,26H523V160.52h2.67Z"/><path class="cls-2" d="M544.44,160.81a9.85,9.85,0,0,1,3.25,2.5,10.93,10.93,0,0,1,2,3.67,15.06,15.06,0,0,1,0,9,10.93,10.93,0,0,1-2,3.67,9.54,9.54,0,0,1-3.25,2.48,11.24,11.24,0,0,1-8.86,0,9.41,9.41,0,0,1-3.24-2.48,10.76,10.76,0,0,1-2-3.67,15.06,15.06,0,0,1,0-9,10.76,10.76,0,0,1,2-3.67,9.71,9.71,0,0,1,3.24-2.5,11,11,0,0,1,8.86,0m-7.78,2.12a7.39,7.39,0,0,0-2.39,2.12,9.43,9.43,0,0,0-1.44,3,12.15,12.15,0,0,0,0,6.83,9.43,9.43,0,0,0,1.44,3,7.39,7.39,0,0,0,2.39,2.12,7.41,7.41,0,0,0,6.7,0,7.53,7.53,0,0,0,2.4-2.12,9.87,9.87,0,0,0,1.44-3,12.15,12.15,0,0,0,0-6.83,9.87,9.87,0,0,0-1.44-3,7.53,7.53,0,0,0-2.4-2.12,7.41,7.41,0,0,0-6.7,0m.85-5.47,4.45-6h3.31l-5.6,6Z"/><path class="cls-2" d="M557,160.52v3.77h.09a6.33,6.33,0,0,1,2.71-3.2,7.94,7.94,0,0,1,4.28-1.21,10.91,10.91,0,0,1,3.84.59,6.13,6.13,0,0,1,2.48,1.68,6.31,6.31,0,0,1,1.32,2.65,15.13,15.13,0,0,1,.38,3.52v14.07h-2.68V168.74a12.71,12.71,0,0,0-.25-2.61,5.68,5.68,0,0,0-.89-2.1,4.35,4.35,0,0,0-1.72-1.4,6.3,6.3,0,0,0-2.69-.5,6.82,6.82,0,0,0-2.86.57,6.05,6.05,0,0,0-2.12,1.57,7.25,7.25,0,0,0-1.36,2.37,9.91,9.91,0,0,0-.53,3v12.76H554.3V160.52Z"/><path class="cls-2" d="M582.24,182.39a7.75,7.75,0,0,1-.23,1.85,6.84,6.84,0,0,1-.7,1.7,5.29,5.29,0,0,1-1.17,1.37,4.1,4.1,0,0,1-1.63.85v-1.82a2,2,0,0,0,.89-.64,4.41,4.41,0,0,0,.64-1,4.88,4.88,0,0,0,.36-1.18,4.21,4.21,0,0,0,.06-1.09h-1.78V177.9h3.56Z"/><path class="cls-2" d="M40.61,195.6q6.91.17,10.41,3.88t3.5,11.25q0,7.56-3.5,11.26t-10.41,3.88H30.14V195.6Zm-1.44,27.81a19.78,19.78,0,0,0,5.62-.7,9.06,9.06,0,0,0,3.88-2.22,9.26,9.26,0,0,0,2.24-4,23.76,23.76,0,0,0,0-11.61,9.21,9.21,0,0,0-2.24-4,9,9,0,0,0-3.88-2.22,19.78,19.78,0,0,0-5.62-.7H33v25.35Z"/><path class="cls-2" d="M60.64,218.64a8.17,8.17,0,0,0,1.3,2.78,7.44,7.44,0,0,0,2.24,2,6.39,6.39,0,0,0,3.27.8A6.48,6.48,0,0,0,72,222.73a8,8,0,0,0,2.29-4.07H77a10.73,10.73,0,0,1-3.12,5.77,9.27,9.27,0,0,1-6.42,2,10.1,10.1,0,0,1-4.47-.92,8.15,8.15,0,0,1-3.08-2.5,10.88,10.88,0,0,1-1.76-3.69,16.81,16.81,0,0,1-.57-4.43,16,16,0,0,1,.57-4.24A11.45,11.45,0,0,1,59.9,207,9,9,0,0,1,63,204.35a9.45,9.45,0,0,1,4.47-1A8.7,8.7,0,0,1,75,207.19a11.69,11.69,0,0,1,1.67,3.95,17.09,17.09,0,0,1,.42,4.51H60.24a11.72,11.72,0,0,0,.4,3m13.23-8.16A7.81,7.81,0,0,0,72.49,208a6.8,6.8,0,0,0-2.16-1.74,6.17,6.17,0,0,0-2.88-.66,6.29,6.29,0,0,0-2.93.66A6.91,6.91,0,0,0,62.36,208a8.74,8.74,0,0,0-1.42,2.5,12.35,12.35,0,0,0-.7,2.91H74.4a9.55,9.55,0,0,0-.53-2.93"/><path class="cls-2" d="M93.27,208.25a4.35,4.35,0,0,0-1.25-1.5,5,5,0,0,0-1.8-.87,8.41,8.41,0,0,0-2.16-.28,9.35,9.35,0,0,0-1.81.19,5.62,5.62,0,0,0-1.67.64,3.63,3.63,0,0,0-1.23,1.17,3.21,3.21,0,0,0-.47,1.78,2.47,2.47,0,0,0,.45,1.5,3.85,3.85,0,0,0,1.12,1,6.58,6.58,0,0,0,1.49.7,15,15,0,0,0,1.48.45l3.56.8a10.35,10.35,0,0,1,2.27.62,7.13,7.13,0,0,1,2,1.16,5.65,5.65,0,0,1,1.42,1.78,5.37,5.37,0,0,1,.55,2.51,5.48,5.48,0,0,1-.8,3,6.54,6.54,0,0,1-2.06,2,8.6,8.6,0,0,1-2.82,1.13,14.92,14.92,0,0,1-3.09.34,10,10,0,0,1-6.26-1.83c-1.59-1.21-2.51-3.16-2.73-5.85h2.67a5.26,5.26,0,0,0,2,4.09,7.15,7.15,0,0,0,4.47,1.38,10.2,10.2,0,0,0,2-.21,6.5,6.5,0,0,0,1.93-.72A4.67,4.67,0,0,0,94,222a3.22,3.22,0,0,0,.57-1.93,3.09,3.09,0,0,0-.4-1.64,3.65,3.65,0,0,0-1.08-1.1,6.74,6.74,0,0,0-1.55-.74,17.72,17.72,0,0,0-1.76-.51l-3.43-.76a19.64,19.64,0,0,1-2.42-.79,7.84,7.84,0,0,1-1.93-1.1,4.6,4.6,0,0,1-1.29-1.61,5.35,5.35,0,0,1-.47-2.35,5.27,5.27,0,0,1,.74-2.84,5.78,5.78,0,0,1,1.93-1.91,8.86,8.86,0,0,1,2.65-1.06,12.69,12.69,0,0,1,2.91-.34,10.8,10.8,0,0,1,3.07.42,7,7,0,0,1,2.5,1.31,6.47,6.47,0,0,1,1.72,2.21,8.07,8.07,0,0,1,.72,3.09H93.78a5.11,5.11,0,0,0-.51-2.14"/><path class="cls-2" d="M101.62,207.38a6.3,6.3,0,0,1,1.85-2.28,7.71,7.71,0,0,1,2.73-1.32,13.49,13.49,0,0,1,3.48-.42,15.6,15.6,0,0,1,2.88.27,7.06,7.06,0,0,1,2.59,1,5.69,5.69,0,0,1,1.87,2.14,7.72,7.72,0,0,1,.72,3.58V222a1.41,1.41,0,0,0,1.57,1.62,2.07,2.07,0,0,0,.84-.17v2.24c-.31.06-.58.1-.82.13a7.78,7.78,0,0,1-.91,0,4.15,4.15,0,0,1-1.64-.27,2.19,2.19,0,0,1-1-.79,2.88,2.88,0,0,1-.45-1.21,10.39,10.39,0,0,1-.1-1.54h-.09a18.9,18.9,0,0,1-1.46,1.88,7.17,7.17,0,0,1-1.65,1.38,7.63,7.63,0,0,1-2.08.85,11.26,11.26,0,0,1-2.78.3,10.93,10.93,0,0,1-2.86-.36A6.44,6.44,0,0,1,102,225a5.41,5.41,0,0,1-1.57-2,6.66,6.66,0,0,1-.57-2.86,5.72,5.72,0,0,1,1-3.59,6.41,6.41,0,0,1,2.7-2,15.18,15.18,0,0,1,3.77-1c1.4-.19,2.82-.36,4.26-.53a15,15,0,0,0,1.49-.22,2.61,2.61,0,0,0,1.06-.44,2,2,0,0,0,.65-.87,3.66,3.66,0,0,0,.24-1.44,4.83,4.83,0,0,0-.45-2.23,3.48,3.48,0,0,0-1.23-1.37,5,5,0,0,0-1.82-.71,13.05,13.05,0,0,0-2.23-.19,6.77,6.77,0,0,0-4.15,1.21,4.74,4.74,0,0,0-1.7,3.88h-2.67a8.9,8.9,0,0,1,.8-3.31M115,213.92a1.51,1.51,0,0,1-1,.67,9.52,9.52,0,0,1-1.28.3c-1.13.2-2.29.37-3.49.53a19.59,19.59,0,0,0-3.29.7,6.44,6.44,0,0,0-2.44,1.34,3.2,3.2,0,0,0-1,2.48,3.85,3.85,0,0,0,.4,1.8,4.41,4.41,0,0,0,1.08,1.35,4.65,4.65,0,0,0,1.57.88,5.92,5.92,0,0,0,1.82.29,9.22,9.22,0,0,0,2.93-.46,7.54,7.54,0,0,0,2.44-1.36,6.69,6.69,0,0,0,1.65-2.17,6.49,6.49,0,0,0,.62-2.88v-3.47Z"/><path class="cls-2" d="M125.54,204v5.14h.08a8.37,8.37,0,0,1,3.16-4.12,8.25,8.25,0,0,1,5.11-1.31v2.67a8.06,8.06,0,0,0-3.31.48,7.4,7.4,0,0,0-4.24,4.16,8.55,8.55,0,0,0-.59,3.2v11.66h-2.67V204Z"/><path class="cls-2" d="M138.89,204v5.14H139a8.37,8.37,0,0,1,3.16-4.12,8.25,8.25,0,0,1,5.11-1.31v2.67a8,8,0,0,0-3.31.48A7.4,7.4,0,0,0,139.7,211a8.36,8.36,0,0,0-.59,3.2v11.66h-2.67V204Z"/><path class="cls-2" d="M162.7,204.29a9.72,9.72,0,0,1,3.25,2.5,10.93,10.93,0,0,1,2,3.67,15.06,15.06,0,0,1,0,8.95,10.79,10.79,0,0,1-2,3.66,9.3,9.3,0,0,1-3.25,2.48,11.13,11.13,0,0,1-8.86,0,9.17,9.17,0,0,1-3.24-2.48,10.62,10.62,0,0,1-2-3.66,15.06,15.06,0,0,1,0-8.95,10.76,10.76,0,0,1,2-3.67,9.59,9.59,0,0,1,3.24-2.5,11,11,0,0,1,8.86,0m-7.78,2.12a7.28,7.28,0,0,0-2.39,2.12,9.43,9.43,0,0,0-1.44,3,12.15,12.15,0,0,0,0,6.83,9.53,9.53,0,0,0,1.44,3,7.39,7.39,0,0,0,2.39,2.12,7.41,7.41,0,0,0,6.7,0,7.53,7.53,0,0,0,2.4-2.12,10,10,0,0,0,1.44-3,12.15,12.15,0,0,0,0-6.83,9.87,9.87,0,0,0-1.44-3,7.41,7.41,0,0,0-2.4-2.12,7.33,7.33,0,0,0-6.7,0"/><rect class="cls-2" x="172.65" y="195.6" width="2.67" height="30.27"/><rect class="cls-2" x="180.49" y="195.6" width="2.67" height="30.27"/><path class="cls-2" d="M202,204.29a9.68,9.68,0,0,1,3.24,2.5,10.76,10.76,0,0,1,2,3.67,15.06,15.06,0,0,1,0,8.95,10.62,10.62,0,0,1-2,3.66,9.26,9.26,0,0,1-3.24,2.48,11.13,11.13,0,0,1-8.86,0,9.3,9.3,0,0,1-3.25-2.48,10.79,10.79,0,0,1-2-3.66,15.06,15.06,0,0,1,0-8.95,10.93,10.93,0,0,1,2-3.67,9.72,9.72,0,0,1,3.25-2.5,11,11,0,0,1,8.86,0m-7.78,2.12a7.41,7.41,0,0,0-2.4,2.12,9.64,9.64,0,0,0-1.44,3,12.15,12.15,0,0,0,0,6.83,9.75,9.75,0,0,0,1.44,3,7.53,7.53,0,0,0,2.4,2.12,7.41,7.41,0,0,0,6.7,0,7.39,7.39,0,0,0,2.39-2.12,9.53,9.53,0,0,0,1.44-3,12.15,12.15,0,0,0,0-6.83,9.43,9.43,0,0,0-1.44-3,7.28,7.28,0,0,0-2.39-2.12,7.33,7.33,0,0,0-6.7,0"/><polygon class="cls-2" points="244.9 195.6 244.9 198.06 234.34 198.06 234.34 225.87 231.46 225.87 231.46 198.06 220.94 198.06 220.94 195.6 244.9 195.6"/><path class="cls-2" d="M244.5,218.64a8.34,8.34,0,0,0,1.29,2.78,7.36,7.36,0,0,0,2.25,2,6.33,6.33,0,0,0,3.26.8,6.48,6.48,0,0,0,4.58-1.53,7.9,7.9,0,0,0,2.29-4.07h2.67a10.65,10.65,0,0,1-3.11,5.77,9.31,9.31,0,0,1-6.43,2,10.16,10.16,0,0,1-4.47-.92,8.12,8.12,0,0,1-3.07-2.5,10.7,10.7,0,0,1-1.76-3.69,16.4,16.4,0,0,1-.58-4.43,15.6,15.6,0,0,1,.58-4.24,11.25,11.25,0,0,1,1.76-3.71,8.94,8.94,0,0,1,3.07-2.63,9.51,9.51,0,0,1,4.47-1,8.66,8.66,0,0,1,7.53,3.83,11.5,11.5,0,0,1,1.67,3.95,17.53,17.53,0,0,1,.43,4.51H244.09a11.75,11.75,0,0,0,.41,3m13.23-8.16a8.21,8.21,0,0,0-1.38-2.48,6.91,6.91,0,0,0-2.16-1.74,6.18,6.18,0,0,0-2.89-.66,6.25,6.25,0,0,0-2.92.66,7,7,0,0,0-2.17,1.74,9,9,0,0,0-1.42,2.5,12.86,12.86,0,0,0-.7,2.91h14.17a9.86,9.86,0,0,0-.53-2.93"/><path class="cls-2" d="M277.93,207a5.83,5.83,0,0,0-4.16-1.4,6.69,6.69,0,0,0-3.34.81,7.31,7.31,0,0,0-2.4,2.12,9.43,9.43,0,0,0-1.44,3,12.15,12.15,0,0,0,0,6.83,9.53,9.53,0,0,0,1.44,3,7.43,7.43,0,0,0,2.4,2.12,6.79,6.79,0,0,0,3.34.8,5.79,5.79,0,0,0,2.34-.47,6.37,6.37,0,0,0,1.95-1.29,7.09,7.09,0,0,0,1.4-2,7.58,7.58,0,0,0,.68-2.5h2.67a10.13,10.13,0,0,1-2.93,6.21,8.59,8.59,0,0,1-6.11,2.23,10.18,10.18,0,0,1-4.42-.92,9.3,9.3,0,0,1-3.25-2.48,10.62,10.62,0,0,1-2-3.66,15.06,15.06,0,0,1,0-8.95,10.76,10.76,0,0,1,2-3.67,9.72,9.72,0,0,1,3.25-2.5,10,10,0,0,1,4.42-.93,9.52,9.52,0,0,1,6,1.86,8,8,0,0,1,2.91,5.64H280a7.4,7.4,0,0,0-2-3.86"/><path class="cls-2" d="M289.17,204v3.78h.08a6.46,6.46,0,0,1,2.72-3.21,8,8,0,0,1,4.28-1.2,10.67,10.67,0,0,1,3.83.59,5.77,5.77,0,0,1,3.8,4.33,14.61,14.61,0,0,1,.38,3.52v14.07h-2.67V212.22a12.71,12.71,0,0,0-.25-2.61,5.68,5.68,0,0,0-.89-2.1,4.42,4.42,0,0,0-1.72-1.4,6.3,6.3,0,0,0-2.69-.51,6.72,6.72,0,0,0-2.87.58,6,6,0,0,0-2.11,1.57,7.07,7.07,0,0,0-1.36,2.37,9.33,9.33,0,0,0-.53,3v12.76H286.5V204Z"/><path class="cls-2" d="M323,204.29a9.72,9.72,0,0,1,3.25,2.5,10.93,10.93,0,0,1,2,3.67,15.06,15.06,0,0,1,0,8.95,10.79,10.79,0,0,1-2,3.66,9.3,9.3,0,0,1-3.25,2.48,11.13,11.13,0,0,1-8.86,0,9.17,9.17,0,0,1-3.24-2.48,10.64,10.64,0,0,1-2-3.66,15.28,15.28,0,0,1,0-8.95,10.78,10.78,0,0,1,2-3.67,9.59,9.59,0,0,1,3.24-2.5,11,11,0,0,1,8.86,0m-7.78,2.12a7.28,7.28,0,0,0-2.39,2.12,9.66,9.66,0,0,0-1.45,3,12.39,12.39,0,0,0,0,6.83,9.77,9.77,0,0,0,1.45,3,7.39,7.39,0,0,0,2.39,2.12,7.41,7.41,0,0,0,6.7,0,7.53,7.53,0,0,0,2.4-2.12,10,10,0,0,0,1.44-3,12.15,12.15,0,0,0,0-6.83,9.87,9.87,0,0,0-1.44-3,7.41,7.41,0,0,0-2.4-2.12,7.33,7.33,0,0,0-6.7,0"/><rect class="cls-2" x="332.92" y="195.6" width="2.67" height="30.27"/><path class="cls-2" d="M354.4,204.29a9.59,9.59,0,0,1,3.24,2.5,10.78,10.78,0,0,1,2,3.67,15.06,15.06,0,0,1,0,8.95,10.64,10.64,0,0,1-2,3.66,9.17,9.17,0,0,1-3.24,2.48,11.13,11.13,0,0,1-8.86,0,9.3,9.3,0,0,1-3.25-2.48,10.79,10.79,0,0,1-2-3.66,15.06,15.06,0,0,1,0-8.95,10.93,10.93,0,0,1,2-3.67,9.72,9.72,0,0,1,3.25-2.5,11,11,0,0,1,8.86,0m-7.78,2.12a7.28,7.28,0,0,0-2.39,2.12,9.66,9.66,0,0,0-1.45,3,12.15,12.15,0,0,0,0,6.83,9.77,9.77,0,0,0,1.45,3,7.39,7.39,0,0,0,2.39,2.12,7.41,7.41,0,0,0,6.7,0,7.53,7.53,0,0,0,2.4-2.12,10,10,0,0,0,1.44-3,12.39,12.39,0,0,0,0-6.83,9.87,9.87,0,0,0-1.44-3,7.41,7.41,0,0,0-2.4-2.12,7.33,7.33,0,0,0-6.7,0m.85-5.47,4.45-6h3.31l-5.6,6Z"/><path class="cls-2" d="M382.26,228.46a8.56,8.56,0,0,1-1.68,3.31,7.42,7.42,0,0,1-3,2.08,12.65,12.65,0,0,1-4.51.72,13.41,13.41,0,0,1-3.23-.39A9.18,9.18,0,0,1,367,233a7,7,0,0,1-2.08-2.06,6.23,6.23,0,0,1-1-3h2.68a4.78,4.78,0,0,0,.82,2.06,5,5,0,0,0,1.49,1.33,6.44,6.44,0,0,0,1.92.74,9.82,9.82,0,0,0,2.17.24c2.48,0,4.28-.71,5.38-2.12a9.79,9.79,0,0,0,1.66-6.11v-3H380a7.79,7.79,0,0,1-2.73,3.27,7.3,7.3,0,0,1-4.22,1.23,10.59,10.59,0,0,1-4.5-.87,8.31,8.31,0,0,1-3.07-2.4,9.68,9.68,0,0,1-1.76-3.58,16.76,16.76,0,0,1-.55-4.39,13.57,13.57,0,0,1,.66-4.26,10.33,10.33,0,0,1,1.91-3.52,8.87,8.87,0,0,1,3.09-2.37,9.76,9.76,0,0,1,4.22-.87,7.55,7.55,0,0,1,2.31.34,7,7,0,0,1,2,1,8.6,8.6,0,0,1,1.59,1.42,6.24,6.24,0,0,1,1.08,1.7h.09V204h2.67v20.1a16.83,16.83,0,0,1-.53,4.37m-6.13-5.83a7.14,7.14,0,0,0,2.21-1.95,8.53,8.53,0,0,0,1.33-2.78,11.59,11.59,0,0,0,.45-3.22,13.63,13.63,0,0,0-.39-3.22,9.31,9.31,0,0,0-1.22-2.93,6.72,6.72,0,0,0-2.19-2.12,6.13,6.13,0,0,0-3.24-.81,6.49,6.49,0,0,0-3.27.79,6.9,6.9,0,0,0-2.24,2.06,8.42,8.42,0,0,0-1.3,2.9,14.31,14.31,0,0,0-.4,3.33,12.37,12.37,0,0,0,.42,3.22,8.51,8.51,0,0,0,1.32,2.78,6.92,6.92,0,0,0,2.24,1.95,6.7,6.7,0,0,0,3.23.74,6.12,6.12,0,0,0,3.05-.74"/><path class="cls-2" d="M390.59,199.88h-2.67V195.6h2.67Zm0,26h-2.67V204h2.67Z"/><path class="cls-2" d="M409.12,207a5.85,5.85,0,0,0-4.16-1.4,6.73,6.73,0,0,0-3.35.81,7.28,7.28,0,0,0-2.39,2.12,9.43,9.43,0,0,0-1.44,3,12.15,12.15,0,0,0,0,6.83,9.53,9.53,0,0,0,1.44,3,7.39,7.39,0,0,0,2.39,2.12,6.83,6.83,0,0,0,3.35.8,5.82,5.82,0,0,0,2.34-.47,6.37,6.37,0,0,0,1.95-1.29,6.86,6.86,0,0,0,1.39-2,7.12,7.12,0,0,0,.68-2.5H414a10.07,10.07,0,0,1-2.92,6.21,8.59,8.59,0,0,1-6.11,2.23,10.26,10.26,0,0,1-4.43-.92,9.26,9.26,0,0,1-3.24-2.48,10.62,10.62,0,0,1-2-3.66,15.06,15.06,0,0,1,0-8.95,10.76,10.76,0,0,1,2-3.67,9.68,9.68,0,0,1,3.24-2.5,10.12,10.12,0,0,1,4.43-.93,9.54,9.54,0,0,1,6,1.86,8,8,0,0,1,2.91,5.64h-2.68a7.32,7.32,0,0,0-2-3.86"/><path class="cls-2" d="M431.4,204.29a9.59,9.59,0,0,1,3.24,2.5,11,11,0,0,1,2,3.67,15.06,15.06,0,0,1,0,8.95,10.81,10.81,0,0,1-2,3.66,9.17,9.17,0,0,1-3.24,2.48,11.13,11.13,0,0,1-8.86,0,9.17,9.17,0,0,1-3.24-2.48,10.64,10.64,0,0,1-2-3.66,15.06,15.06,0,0,1,0-8.95,10.78,10.78,0,0,1,2-3.67,9.59,9.59,0,0,1,3.24-2.5,11,11,0,0,1,8.86,0m-7.78,2.12a7.28,7.28,0,0,0-2.39,2.12,9.66,9.66,0,0,0-1.45,3,12.39,12.39,0,0,0,0,6.83,9.77,9.77,0,0,0,1.45,3,7.39,7.39,0,0,0,2.39,2.12,7.41,7.41,0,0,0,6.7,0,7.39,7.39,0,0,0,2.39-2.12,9.77,9.77,0,0,0,1.45-3,12.39,12.39,0,0,0,0-6.83,9.66,9.66,0,0,0-1.45-3,7.28,7.28,0,0,0-2.39-2.12,7.33,7.33,0,0,0-6.7,0"/><path class="cls-2" d="M455.06,218.64a8.34,8.34,0,0,0,1.29,2.78,7.47,7.47,0,0,0,2.25,2,6.35,6.35,0,0,0,3.26.8,6.51,6.51,0,0,0,4.59-1.53,8,8,0,0,0,2.28-4.07h2.68a10.73,10.73,0,0,1-3.12,5.77,9.28,9.28,0,0,1-6.43,2,10.16,10.16,0,0,1-4.47-.92,8.12,8.12,0,0,1-3.07-2.5,10.7,10.7,0,0,1-1.76-3.69,16.81,16.81,0,0,1-.57-4.43,16,16,0,0,1,.57-4.24,11.25,11.25,0,0,1,1.76-3.71,8.94,8.94,0,0,1,3.07-2.63,9.51,9.51,0,0,1,4.47-1,8.66,8.66,0,0,1,7.53,3.83,11.51,11.51,0,0,1,1.68,3.95,17.09,17.09,0,0,1,.42,4.51H454.66a11.72,11.72,0,0,0,.4,3m13.23-8.16a8,8,0,0,0-1.38-2.48,6.8,6.8,0,0,0-2.16-1.74,6.18,6.18,0,0,0-2.89-.66,6.25,6.25,0,0,0-2.92.66,6.8,6.8,0,0,0-2.16,1.74,8.76,8.76,0,0,0-1.43,2.5,12.33,12.33,0,0,0-.69,2.91h14.16a9.86,9.86,0,0,0-.53-2.93"/><rect class="cls-2" x="487.6" y="195.6" width="2.88" height="30.27"/><path class="cls-2" d="M498.92,204v3.78H499a6.44,6.44,0,0,1,2.71-3.21,8,8,0,0,1,4.29-1.2,10.67,10.67,0,0,1,3.83.59,6.21,6.21,0,0,1,2.48,1.67,6.29,6.29,0,0,1,1.32,2.66,15.13,15.13,0,0,1,.38,3.52v14.07h-2.67V212.22a12.69,12.69,0,0,0-.26-2.61,5.52,5.52,0,0,0-.89-2.1,4.31,4.31,0,0,0-1.71-1.4,6.35,6.35,0,0,0-2.7-.51,6.67,6.67,0,0,0-2.86.58,6.15,6.15,0,0,0-2.12,1.57,7.25,7.25,0,0,0-1.36,2.37,9.91,9.91,0,0,0-.53,3v12.76h-2.67V204Z"/><path class="cls-2" d="M521.69,204v3.78h.09a6.44,6.44,0,0,1,2.71-3.21,8,8,0,0,1,4.28-1.2,10.69,10.69,0,0,1,3.84.59,6.21,6.21,0,0,1,2.48,1.67,6.41,6.41,0,0,1,1.32,2.66,15.13,15.13,0,0,1,.38,3.52v14.07h-2.67V212.22a12.69,12.69,0,0,0-.26-2.61,5.68,5.68,0,0,0-.89-2.1,4.35,4.35,0,0,0-1.72-1.4,6.27,6.27,0,0,0-2.69-.51,6.67,6.67,0,0,0-2.86.58,6.15,6.15,0,0,0-2.12,1.57,7.25,7.25,0,0,0-1.36,2.37,9.91,9.91,0,0,0-.53,3v12.76H519V204Z"/><path class="cls-2" d="M555.51,204.29a9.68,9.68,0,0,1,3.24,2.5,11,11,0,0,1,2,3.67,15.06,15.06,0,0,1,0,8.95,10.81,10.81,0,0,1-2,3.66,9.26,9.26,0,0,1-3.24,2.48,11.15,11.15,0,0,1-8.87,0,9.35,9.35,0,0,1-3.24-2.48,10.79,10.79,0,0,1-2-3.66,15.06,15.06,0,0,1,0-8.95,10.93,10.93,0,0,1,2-3.67,9.78,9.78,0,0,1,3.24-2.5,11,11,0,0,1,8.87,0m-7.78,2.12a7.41,7.41,0,0,0-2.4,2.12,9.87,9.87,0,0,0-1.44,3,12.15,12.15,0,0,0,0,6.83,10,10,0,0,0,1.44,3,7.53,7.53,0,0,0,2.4,2.12,7.41,7.41,0,0,0,6.7,0,7.39,7.39,0,0,0,2.39-2.12,9.53,9.53,0,0,0,1.44-3,12.15,12.15,0,0,0,0-6.83,9.43,9.43,0,0,0-1.44-3,7.28,7.28,0,0,0-2.39-2.12,7.33,7.33,0,0,0-6.7,0"/><polygon class="cls-2" points="565.92 203.99 572.79 223.2 572.87 223.2 579.65 203.99 582.41 203.99 574.23 225.87 571.39 225.87 562.95 203.99 565.92 203.99"/><path class="cls-2" d="M585.59,207.38a6.19,6.19,0,0,1,1.85-2.28,7.63,7.63,0,0,1,2.73-1.32,13.49,13.49,0,0,1,3.48-.42,15.6,15.6,0,0,1,2.88.27,7.06,7.06,0,0,1,2.59,1,5.66,5.66,0,0,1,1.86,2.14,7.72,7.72,0,0,1,.72,3.58V222a1.41,1.41,0,0,0,1.57,1.62,2.11,2.11,0,0,0,.85-.17v2.24c-.31.06-.59.1-.83.13a7.67,7.67,0,0,1-.91,0,4.1,4.1,0,0,1-1.63-.27,2.19,2.19,0,0,1-1-.79,2.88,2.88,0,0,1-.45-1.21,10.32,10.32,0,0,1-.11-1.54h-.08a18.9,18.9,0,0,1-1.46,1.88,7.22,7.22,0,0,1-1.66,1.38,7.5,7.5,0,0,1-2.08.85,11.18,11.18,0,0,1-2.77.3,11.06,11.06,0,0,1-2.87-.36A6.6,6.6,0,0,1,586,225a5.49,5.49,0,0,1-1.56-2,6.52,6.52,0,0,1-.58-2.86,5.66,5.66,0,0,1,1-3.59,6.44,6.44,0,0,1,2.69-2,15.38,15.38,0,0,1,3.78-1c1.4-.19,2.82-.36,4.26-.53a14.79,14.79,0,0,0,1.48-.22,2.5,2.5,0,0,0,1.06-.44,2,2,0,0,0,.66-.87,3.87,3.87,0,0,0,.23-1.44,5,5,0,0,0-.44-2.23,3.48,3.48,0,0,0-1.23-1.37,5.06,5.06,0,0,0-1.82-.71,13.14,13.14,0,0,0-2.23-.19,6.8,6.8,0,0,0-4.16,1.21,4.73,4.73,0,0,0-1.69,3.88h-2.68a9.1,9.1,0,0,1,.81-3.31M599,213.92a1.53,1.53,0,0,1-1,.67,9.07,9.07,0,0,1-1.27.3c-1.13.2-2.3.37-3.5.53a19.47,19.47,0,0,0-3.28.7,6.36,6.36,0,0,0-2.44,1.34,3.17,3.17,0,0,0-1,2.48,3.85,3.85,0,0,0,.41,1.8,4.41,4.41,0,0,0,1.08,1.35,4.56,4.56,0,0,0,1.57.88,5.92,5.92,0,0,0,1.82.29,9.26,9.26,0,0,0,2.93-.46,7.54,7.54,0,0,0,2.44-1.36,6.69,6.69,0,0,0,1.65-2.17,6.48,6.48,0,0,0,.61-2.88v-3.47Z"/><path class="cls-2" d="M620.44,207a5.8,5.8,0,0,0-4.15-1.4,6.73,6.73,0,0,0-3.35.81,7.28,7.28,0,0,0-2.39,2.12,9.66,9.66,0,0,0-1.45,3,12.39,12.39,0,0,0,0,6.83,9.77,9.77,0,0,0,1.45,3,7.39,7.39,0,0,0,2.39,2.12,6.83,6.83,0,0,0,3.35.8,5.74,5.74,0,0,0,2.33-.47,6.14,6.14,0,0,0,2-1.29,6.89,6.89,0,0,0,1.4-2,7.12,7.12,0,0,0,.68-2.5h2.67a10.12,10.12,0,0,1-2.92,6.21,8.61,8.61,0,0,1-6.11,2.23,10.19,10.19,0,0,1-4.43-.92,9.17,9.17,0,0,1-3.24-2.48,10.64,10.64,0,0,1-2-3.66,15.06,15.06,0,0,1,0-8.95,10.78,10.78,0,0,1,2-3.67,9.59,9.59,0,0,1,3.24-2.5,10.05,10.05,0,0,1,4.43-.93,9.54,9.54,0,0,1,6,1.86,8,8,0,0,1,2.9,5.64h-2.67a7.4,7.4,0,0,0-2-3.86"/><path class="cls-2" d="M631.77,199.88H629.1V195.6h2.67Zm0,26H629.1V204h2.67Z"/><path class="cls-2" d="M650.57,204.29a9.72,9.72,0,0,1,3.25,2.5,10.93,10.93,0,0,1,2,3.67,15.06,15.06,0,0,1,0,8.95,10.79,10.79,0,0,1-2,3.66,9.3,9.3,0,0,1-3.25,2.48,11.13,11.13,0,0,1-8.86,0,9.17,9.17,0,0,1-3.24-2.48,10.64,10.64,0,0,1-2-3.66,15.06,15.06,0,0,1,0-8.95,10.78,10.78,0,0,1,2-3.67,9.59,9.59,0,0,1,3.24-2.5,11,11,0,0,1,8.86,0m-7.78,2.12a7.28,7.28,0,0,0-2.39,2.12,9.66,9.66,0,0,0-1.45,3,12.39,12.39,0,0,0,0,6.83,9.77,9.77,0,0,0,1.45,3,7.39,7.39,0,0,0,2.39,2.12,7.41,7.41,0,0,0,6.7,0,7.53,7.53,0,0,0,2.4-2.12,10,10,0,0,0,1.44-3,12.15,12.15,0,0,0,0-6.83,9.87,9.87,0,0,0-1.44-3,7.41,7.41,0,0,0-2.4-2.12,7.33,7.33,0,0,0-6.7,0m.85-5.47,4.45-6h3.31l-5.6,6Z"/><path class="cls-2" d="M663.1,204v3.78h.09a6.44,6.44,0,0,1,2.71-3.21,8,8,0,0,1,4.28-1.2A10.69,10.69,0,0,1,674,204a6.21,6.21,0,0,1,2.48,1.67,6.27,6.27,0,0,1,1.31,2.66,14.58,14.58,0,0,1,.39,3.52v14.07h-2.68V212.22a12.71,12.71,0,0,0-.25-2.61,5.52,5.52,0,0,0-.89-2.1,4.35,4.35,0,0,0-1.72-1.4,6.3,6.3,0,0,0-2.69-.51,6.67,6.67,0,0,0-2.86.58,6.05,6.05,0,0,0-2.12,1.57,7.07,7.07,0,0,0-1.36,2.37,9.91,9.91,0,0,0-.53,3v12.76h-2.67V204Z"/><polygon class="cls-3" points="658.98 141.93 666.79 141.93 669.86 130.48 662.04 130.48 658.98 141.93"/><polygon class="cls-3" points="669.86 141.93 677.68 141.93 680.75 130.48 672.93 130.48 669.86 141.93"/><polygon class="cls-3" points="681 141.93 688.82 141.93 691.88 130.48 684.06 130.48 681 141.93"/><path class="cls-4" d="M113.76,42.91H96.49c-.09-.86-.14-1.5-.14-1.91q-.61-7.84-3.48-9.87t-13.52-2q-12.55,0-16.42,2.32T59.08,41.2q0,8.8,3.14,10.59T83,54.52q20.82,1.15,26.93,5.93T116,80.32q0,18.57-7.17,24t-31.6,5.42q-22,0-29.19-5.32t-7.2-21.57l-.07-3.42H58l.07,2q0,9.77,3.42,12T80.1,95.55Q92,95.55,95.26,93t3.28-11.68q0-6.75-2.5-9t-10.75-2.7l-9.76-.61q-22.12-1.31-28.26-6.15T41.12,42.09q0-16.32,7.41-21.74t29.59-5.43q21,0,28.33,5t7.31,19.46Z"/><polygon class="cls-4" points="144.14 30.62 144.14 54.65 187.83 54.65 187.83 67.69 144.14 67.69 144.14 94.04 190.63 94.04 190.63 108.92 126.45 108.92 126.45 15.74 190.22 15.74 190.22 30.62 144.14 30.62"/><path class="cls-4" d="M290.3,15.74v93.19h-30L233.7,57.79q-2-3.82-6.21-13.38l-3-6.69L221.55,31h-.68l.27,6.15.21,6.07.14,12.22v53.46H203.8V15.74h30L258,63q3.21,6.29,7.44,15.23L269,85.78l3.55,7.65h.61l-.2-6-.21-6-.13-12V15.74Z"/><path class="cls-4" d="M393.18,15.74v93.19h-30L336.58,57.79q-2-3.82-6.21-13.38l-3-6.69L324.43,31h-.68l.27,6.15.21,6.07.13,12.22v53.46H306.68V15.74h30L360.89,63q3.21,6.29,7.44,15.23l3.55,7.57,3.55,7.65H376l-.2-6-.21-6-.13-12V15.74Z"/><path class="cls-4" d="M559.89,15.74h18.7l-30,93.19H521.39L491.62,15.74H510l17.47,52.77q2.46,7.58,7.31,25.4h.47L537,87.56q3.27-11.88,5.6-19Z"/><path class="cls-4" d="M642.69,91h-40.2l-5.81,17.89H578l31-93.19h26.56L667,108.93H648.63ZM638.6,78,622.49,29.46,606.65,78Z"/><path class="cls-4" d="M493.36,34.7a39.6,39.6,0,0,1,5.4,8.77c7.59,25.77.24,46.46-8.45,56.55a55.67,55.67,0,0,1-15.19,13.1,62.55,62.55,0,0,1-56.8,2.27,53.48,53.48,0,0,1-17-12.24l-.5,2.61-1.9-8.16,4.68-.81L402.79,99c3.09,2.94,8,5.49,12.39,7.26,10.82,5.09,23.93,8.26,37.39,6.59a55.33,55.33,0,0,0,18.7-5.71A56.65,56.65,0,0,0,485.93,96c8.2-8.59,15.92-28.36,11.8-49.54-1.49-5.09-4.37-11.76-4.37-11.76"/><path class="cls-2" d="M419.71,18.69l-3.37-1L418.91,13l.26,1.21s2-1,3.09-1.46a74.71,74.71,0,0,1,39-5.79,52.87,52.87,0,0,1,22.65,8.11,38.21,38.21,0,0,1,15.46,20.21,47.47,47.47,0,0,1,1,24.45C498.68,67.44,496,75.34,492,81.4c-7.89,12.18-23.16,32.51-65.89,27.21C463.45,111.91,479.26,91,486,79.49c6.61-11.35,11-28.16,6.52-42.28a32.71,32.71,0,0,0-12.58-16.9,48.27,48.27,0,0,0-19.53-7.68,74.53,74.53,0,0,0-36.66,3.26c-1.45.5-4.18,1.6-4.18,1.6Z"/><path class="cls-2" d="M468.72,79.28c-9.68,7.72-26.4,11.86-43.54,4.8-6.65-3.18-10.93-6.39-14.72-13.07a25.1,25.1,0,0,1-1.3-23c4.08-9.59,12.34-17.53,27.63-21.41,14.59-3.45,33,1.06,36,18C476.2,64,459.86,71.89,455.51,74c.09.07,1,.89,1,.89l-4.18-.23.71-2.86,1.1.94c2.4-1.54,16.9-10.4,13.46-27.23-3.47-17-39.61-19.8-52,4.54a20.87,20.87,0,0,0,.37,18.88c3,5.85,6.07,8.54,11.8,11.68,10.83,4.92,26.68,6.6,41-1.29"/><path class="cls-5" d="M400.11,77.26a34.94,34.94,0,0,1-3-5.3,32.1,32.1,0,0,1-3-17.09c.69-7.61,3.16-15.54,11.72-24.66,14.34-15,35.88-16.28,38.37-16.24,26.72,0,34.07,17.67,35,21.32a40.18,40.18,0,0,1,.92,5.24,4.55,4.55,0,0,1,1.59-1l-2.62,6.51-3.4-3a21.42,21.42,0,0,1,2-1,35.92,35.92,0,0,0-1.6-5.58,21,21,0,0,0-8.45-9.67c-2.3-1.45-12-8.89-35-4.06-6.78,1.88-15,4.26-23.06,12.24a40.29,40.29,0,0,0-12.16,20.43A32.71,32.71,0,0,0,398,71.53a45.81,45.81,0,0,0,2.08,5.73"/><path class="cls-6" d="M394.37,43.23c-16.29,20.89.47,46.33,30,53.55,32,6.26,42.46-7.68,47.13-12a21.31,21.31,0,0,0,3.52-4,8.08,8.08,0,0,0-1-1.1l3.33-.5,0,5.09s-.11-.22-.64-1.08A23,23,0,0,1,474,87.1c-4.6,5.4-18.86,22.19-51.63,16.15-25.72-6.54-53.77-31.81-28-60"/><path class="cls-4" d="M436.57,35.61l.25,4.86-3.84-1s.53-.59.86-.9c-3.76-4.32-9.55-9.42-16.83-11.82a17.09,17.09,0,0,0-10.4-.38,12.87,12.87,0,0,0-7.14,6c-8.38,14.81,1.61,43.3,13.66,52.24-12.05-6.82-24-26.52-22.89-44.58a23,23,0,0,1,3.05-10.76,16.37,16.37,0,0,1,9.85-7.62c4.64-1.35,10.37-.64,15,1.18a38,38,0,0,1,11.48,7,42.72,42.72,0,0,1,6.12,6.66,7,7,0,0,0,.82-.91"/><path class="cls-6" d="M506.81,59.11a44.12,44.12,0,0,0-.61-6c-.67-3.68-2.23-9.43-7.2-13.71s-13.68-5.35-22.66-4.22-18.57,4.41-27.9,8.94A50.39,50.39,0,0,0,442,47.91a65.31,65.31,0,0,0-5.73,4.62,57.94,57.94,0,0,0-9.11,10.41c-5,7.28-7.65,15-7.89,21.58A22,22,0,0,0,419.6,90l1.9.21L419,92.67l-4.2-3.19s.85.15,1.87.28a26.43,26.43,0,0,1-.94-5.15c-.66-7.34,1.4-16.2,6.35-24.62a57.18,57.18,0,0,1,9.47-12.07,61.59,61.59,0,0,1,6.26-5.33,51.54,51.54,0,0,1,7.4-4.43,83.79,83.79,0,0,1,30.53-8.6,50.39,50.39,0,0,1,14.6,1.36A20.87,20.87,0,0,1,501.44,37a21.26,21.26,0,0,1,4.85,8.77,27.54,27.54,0,0,1,1,7.23,35.71,35.71,0,0,1-.47,6.07"/><path class="cls-5" d="M433.27,68.57l3.32-9.17,8.23,4.29-3.44,1.59s1.83,3.74,2.92,5.63c3.25,5.63,7.55,11.14,13.19,15.06,7.66,5.3,16.68,8.22,24.68,8.16s14.89-3.71,18.31-8.76a24.1,24.1,0,0,0,4.4-14,30.22,30.22,0,0,0-.55-5.62,27.21,27.21,0,0,1,1.5,5.54A24.44,24.44,0,0,1,503.1,87a22.51,22.51,0,0,1-8,8.32,28,28,0,0,1-12.74,4C473,100,462.76,97.06,453.93,91a42.61,42.61,0,0,1-10.84-11.16,59.65,59.65,0,0,1-3.58-6c-1.15-2.2-3-6.63-3-6.63Z"/><path class="cls-7" d="M449.19,65.72l-.57-7.25,5.4.38-1.31,2,.23.22a43.35,43.35,0,0,0,4.32,3.52,22.49,22.49,0,0,0,5.51,2.85,17.79,17.79,0,0,0,6.41.81A15.48,15.48,0,0,0,481,62.18a23.55,23.55,0,0,0,3.54-6.73,19.1,19.1,0,0,0,.93-3.7,27.5,27.5,0,0,0,.17-4A40.63,40.63,0,0,0,481.27,31C476,20.12,466,12.88,455.71,9.64a58.12,58.12,0,0,0-14.18-3,63.76,63.76,0,0,0-8.09-.19A47.25,47.25,0,0,0,427,7.3c-16.24,2.5-26.74,14-26.7,13.82,0,.21,5.29-10.83,24.74-17.1a65.72,65.72,0,0,1,8-1.77,63.58,63.58,0,0,1,8.75-.65,59.11,59.11,0,0,1,15.74,2.28,49.14,49.14,0,0,1,17.19,8.22A45.43,45.43,0,0,1,492.6,47.68a29.4,29.4,0,0,1-.43,5.09,23.08,23.08,0,0,1-1.44,4.91,28.4,28.4,0,0,1-5,8.32,20.57,20.57,0,0,1-16.56,7.16,21.85,21.85,0,0,1-8-1.76,25.85,25.85,0,0,1-6.14-4A48.26,48.26,0,0,1,451.51,64c-.09-.09-.56-.68-.56-.68Z"/></svg>